<svg xmlns="http://www.w3.org/2000/svg" xmlns:xlink="http://www.w3.org/1999/xlink" version="1.1" x="0px" y="0px" viewBox="0 0 100 100" style="enable-background:new 0 0 100 100;" xml:space="preserve"><g><path d="M65.986,8.699C65.699,5.282,55.855,4.362,50,4.362c-5.855,0-15.698,0.92-15.986,4.337H34v80.948   c0,3.933,8.049,5.99,16,5.99c7.951,0,16-2.058,16-5.99V8.699H65.986z M64,11.263c-1.549,1.11-6.671,2.324-14,2.324   c-7.329,0-12.451-1.214-14-2.324v-0.601c2.627,1.435,8.333,2.18,14,2.18c5.667,0,11.374-0.745,14-2.18V11.263z M36,12.407   c2.627,1.435,8.333,2.18,14,2.18c5.667,0,11.374-0.745,14-2.18v3.278c-1.549,1.11-6.671,2.324-14,2.324   c-7.329,0-12.451-1.214-14-2.324V12.407z M50,6.362c8.541,0,13.659,1.649,14,2.489v0.666c-1.549,1.11-6.671,2.324-14,2.324   c-7.329,0-12.451-1.214-14-2.324V8.886C36.378,8.001,41.487,6.362,50,6.362z M50,93.638c-8.546,0-14-2.363-14-3.99v-4.852   c0.169,0,0.335-0.086,0.429-0.242c0.143-0.237,0.066-0.544-0.17-0.687l-0.092-0.057c-0.052-0.034-0.109-0.053-0.167-0.065v-0.729   c0.169,0,0.335-0.086,0.428-0.242c0.143-0.237,0.066-0.544-0.17-0.687l-0.092-0.057c-0.052-0.034-0.109-0.053-0.166-0.065v-0.728   c0.169,0,0.335-0.086,0.429-0.242c0.143-0.237,0.066-0.544-0.17-0.687l-0.092-0.057C36.114,80.219,36.057,80.2,36,80.188v-0.728   c0.169,0,0.335-0.086,0.429-0.242c0.143-0.237,0.066-0.544-0.17-0.687l-0.092-0.057c-0.052-0.034-0.109-0.053-0.167-0.065V77.68   c0.169,0,0.335-0.086,0.428-0.242c0.143-0.237,0.066-0.544-0.17-0.687l-0.092-0.057c-0.052-0.034-0.109-0.053-0.166-0.065v-0.727   c0.169,0,0.335-0.086,0.429-0.242c0.143-0.237,0.066-0.544-0.17-0.687l-0.092-0.057c-0.052-0.034-0.109-0.053-0.167-0.065v-0.729   c0.169,0,0.335-0.086,0.429-0.242c0.143-0.237,0.066-0.544-0.17-0.687l-0.092-0.057c-0.052-0.034-0.109-0.053-0.167-0.065v-0.729   c0.169,0,0.335-0.086,0.428-0.242c0.143-0.237,0.066-0.544-0.17-0.687l-0.092-0.057c-0.052-0.034-0.109-0.053-0.166-0.065v-0.728   c0.169,0,0.335-0.086,0.429-0.242c0.143-0.237,0.066-0.544-0.17-0.687l-0.092-0.057c-0.052-0.034-0.109-0.053-0.167-0.065v-0.729   c0.169,0,0.335-0.086,0.428-0.242c0.143-0.237,0.066-0.544-0.17-0.687L36.166,67.8c-0.052-0.034-0.109-0.053-0.166-0.065v-0.729   c0.169,0,0.335-0.086,0.428-0.242c0.143-0.237,0.066-0.544-0.17-0.687l-0.092-0.057c-0.052-0.034-0.109-0.053-0.166-0.065v-0.728   c0.169,0,0.335-0.086,0.428-0.242c0.143-0.237,0.066-0.544-0.17-0.687l-0.092-0.057c-0.052-0.034-0.109-0.053-0.166-0.065v-0.729   c0.169,0,0.335-0.086,0.428-0.242c0.143-0.237,0.066-0.544-0.17-0.687l-0.092-0.057c-0.052-0.034-0.109-0.053-0.166-0.065v-0.727   c0.169,0,0.335-0.086,0.429-0.242c0.143-0.237,0.066-0.544-0.17-0.687l-0.092-0.057c-0.052-0.034-0.109-0.053-0.167-0.065v-0.729   c0.169,0,0.335-0.086,0.428-0.242c0.143-0.237,0.066-0.544-0.17-0.687l-0.092-0.057c-0.052-0.034-0.109-0.053-0.166-0.065v-0.727   c0.169,0,0.335-0.086,0.429-0.242c0.143-0.237,0.066-0.544-0.17-0.687l-0.092-0.057c-0.052-0.034-0.109-0.053-0.167-0.065v-0.728   c0.169,0,0.335-0.086,0.429-0.242c0.143-0.237,0.066-0.544-0.17-0.687l-0.092-0.057c-0.052-0.034-0.109-0.053-0.167-0.065v-0.729   c0.169,0,0.335-0.086,0.428-0.242c0.143-0.237,0.066-0.544-0.17-0.687l-0.092-0.057c-0.052-0.034-0.109-0.053-0.166-0.065v-0.728   c0.169,0,0.335-0.086,0.429-0.242c0.143-0.237,0.066-0.544-0.17-0.687l-0.092-0.057c-0.052-0.034-0.109-0.053-0.167-0.065v-0.728   c0.169,0,0.335-0.086,0.429-0.242c0.143-0.237,0.066-0.544-0.17-0.687l-0.092-0.057c-0.052-0.034-0.109-0.053-0.167-0.065v-0.729   c0.169,0,0.335-0.086,0.428-0.242c0.143-0.237,0.066-0.544-0.17-0.687l-0.092-0.057c-0.052-0.034-0.109-0.053-0.166-0.065V47.44   c0.169,0,0.335-0.086,0.429-0.242c0.143-0.237,0.066-0.544-0.17-0.687l-0.092-0.057c-0.052-0.034-0.109-0.053-0.167-0.065V16.829   c2.627,1.435,8.333,2.18,14,2.18c5.667,0,11.374-0.745,14-2.18v29.589c-0.083,0.011-0.165,0.033-0.235,0.079   c-0.238,0.14-0.317,0.446-0.177,0.685c0.09,0.152,0.248,0.235,0.412,0.241v0.774c-0.083,0.011-0.165,0.033-0.235,0.079   c-0.238,0.14-0.317,0.446-0.177,0.685c0.09,0.152,0.248,0.235,0.412,0.241v0.774c-0.083,0.011-0.165,0.033-0.235,0.079   c-0.238,0.14-0.317,0.446-0.177,0.685c0.09,0.152,0.248,0.235,0.412,0.241v0.774c-0.083,0.011-0.165,0.033-0.235,0.079   c-0.238,0.14-0.317,0.446-0.177,0.685c0.09,0.152,0.248,0.235,0.412,0.241v0.774c-0.083,0.011-0.165,0.033-0.235,0.079   c-0.238,0.14-0.317,0.446-0.177,0.685c0.09,0.152,0.248,0.235,0.412,0.241v0.774c-0.083,0.011-0.165,0.033-0.235,0.079   c-0.238,0.14-0.317,0.446-0.177,0.685c0.09,0.152,0.248,0.235,0.412,0.241v0.775c-0.083,0.011-0.165,0.033-0.235,0.079   c-0.238,0.14-0.317,0.446-0.177,0.685c0.09,0.152,0.248,0.235,0.412,0.241v0.774c-0.083,0.011-0.165,0.033-0.235,0.079   c-0.238,0.14-0.317,0.446-0.177,0.685c0.09,0.152,0.248,0.235,0.412,0.241v0.774c-0.083,0.011-0.165,0.033-0.235,0.079   c-0.238,0.14-0.317,0.446-0.177,0.685c0.09,0.152,0.248,0.235,0.412,0.241v0.774c-0.083,0.011-0.165,0.033-0.235,0.079   c-0.238,0.14-0.317,0.446-0.177,0.685c0.09,0.152,0.248,0.235,0.412,0.241v0.774c-0.083,0.011-0.165,0.033-0.235,0.079   c-0.238,0.14-0.317,0.446-0.177,0.685c0.09,0.152,0.248,0.235,0.412,0.241v0.773c-0.083,0.011-0.165,0.033-0.235,0.079   c-0.238,0.14-0.317,0.446-0.177,0.685c0.09,0.152,0.248,0.235,0.412,0.241v0.775c-0.083,0.011-0.165,0.033-0.235,0.079   c-0.238,0.14-0.317,0.446-0.177,0.685c0.09,0.152,0.248,0.235,0.412,0.241v0.773c-0.083,0.011-0.165,0.033-0.235,0.079   c-0.238,0.14-0.317,0.446-0.177,0.685c0.09,0.152,0.248,0.235,0.412,0.241v0.774c-0.083,0.011-0.165,0.033-0.235,0.079   c-0.238,0.14-0.317,0.446-0.177,0.685c0.09,0.152,0.248,0.235,0.412,0.241V73.1c-0.083,0.011-0.165,0.033-0.235,0.079   c-0.238,0.14-0.317,0.446-0.177,0.685c0.09,0.152,0.248,0.235,0.412,0.241v0.775c-0.083,0.011-0.165,0.033-0.235,0.079   c-0.238,0.14-0.317,0.446-0.177,0.685c0.09,0.152,0.248,0.235,0.412,0.241v0.774c-0.083,0.011-0.165,0.033-0.235,0.079   c-0.238,0.14-0.317,0.446-0.177,0.685c0.09,0.152,0.248,0.235,0.412,0.241v0.774c-0.083,0.011-0.165,0.033-0.235,0.079   c-0.238,0.14-0.317,0.446-0.177,0.685c0.09,0.152,0.248,0.235,0.412,0.241v0.774c-0.083,0.011-0.165,0.033-0.235,0.079   c-0.238,0.14-0.317,0.446-0.177,0.685c0.09,0.152,0.248,0.235,0.412,0.241v0.774c-0.083,0.011-0.165,0.033-0.235,0.079   c-0.238,0.14-0.317,0.446-0.177,0.685C63.678,82.911,63.836,82.994,64,83v0.773c-0.083,0.011-0.165,0.033-0.235,0.079   c-0.238,0.14-0.317,0.446-0.177,0.685c0.09,0.152,0.248,0.235,0.412,0.241v4.869C64,91.274,58.546,93.638,50,93.638z"></path><path d="M50.073,48.674H49.95c-0.276,0-0.475,0.224-0.475,0.5s0.248,0.5,0.524,0.5h0.074c0.276,0,0.5-0.224,0.5-0.5   S50.35,48.674,50.073,48.674z"></path><path d="M48.489,48.656l-0.123-0.003c-0.283,0.006-0.505,0.212-0.512,0.488c-0.006,0.276,0.212,0.505,0.488,0.512l0.123,0.003   c0.004,0,0.008,0,0.012,0c0.271,0,0.493-0.216,0.5-0.488C48.983,48.892,48.765,48.663,48.489,48.656z"></path><path d="M51.657,48.652l-0.123,0.003c-0.276,0.007-0.494,0.236-0.488,0.512c0.007,0.272,0.229,0.488,0.5,0.488   c0.004,0,0.008,0,0.013,0l0.122-0.003c0.276-0.007,0.495-0.236,0.488-0.512C52.162,48.865,51.927,48.656,51.657,48.652z"></path><path d="M46.906,48.599l-0.123-0.006c-0.257-0.008-0.509,0.2-0.523,0.476c-0.013,0.276,0.2,0.51,0.476,0.523l0.123,0.006   c0.008,0,0.016,0,0.024,0c0.265,0,0.486-0.208,0.499-0.476C47.395,48.846,47.182,48.612,46.906,48.599z"></path><path d="M53.24,48.592l-0.129,0.007c-0.275,0.017-0.485,0.253-0.469,0.529c0.016,0.265,0.236,0.47,0.499,0.47   c0.01,0,0.021,0,0.031-0.001l0.116-0.006c0.276-0.013,0.489-0.248,0.476-0.523C53.75,48.791,53.511,48.572,53.24,48.592z"></path><path d="M45.325,48.5l-0.122-0.009c-0.271-0.016-0.485,0.189-0.505,0.463c-0.021,0.275,0.214,0.517,0.489,0.538   c0,0,0.066,0.005,0.067,0.005c0.012,0.001,0.024,0.001,0.036,0.001c0.26,0,0.479-0.201,0.498-0.464   C45.808,48.758,45.6,48.519,45.325,48.5z"></path><path d="M54.814,48.489l-0.116,0.009c-0.275,0.02-0.482,0.259-0.462,0.535c0.019,0.263,0.238,0.464,0.498,0.464   c0.012,0,0.024,0,0.037-0.001l0.128-0.01c0.275-0.023,0.479-0.265,0.456-0.54C55.331,48.67,55.085,48.461,54.814,48.489z"></path><path d="M43.752,48.355l-0.122-0.013c-0.273-0.028-0.521,0.168-0.551,0.443c-0.03,0.274,0.168,0.521,0.443,0.551l0.123,0.013   c0.018,0.002,0.036,0.003,0.054,0.003c0.252,0,0.469-0.19,0.497-0.447C44.226,48.631,44.027,48.384,43.752,48.355z"></path><path d="M56.392,48.339l-0.127,0.014c-0.274,0.033-0.47,0.281-0.438,0.556c0.03,0.254,0.246,0.441,0.496,0.441   c0.02,0,0.04-0.001,0.06-0.003l0.117-0.013c0.275-0.03,0.473-0.276,0.443-0.551C56.913,48.507,56.662,48.307,56.392,48.339z"></path><path d="M42.187,48.159l-0.122-0.018c-0.279-0.048-0.528,0.149-0.566,0.423c-0.04,0.273,0.15,0.527,0.423,0.566l0.122,0.018   c0.024,0.004,0.048,0.005,0.072,0.005c0.245,0,0.458-0.179,0.494-0.428C42.65,48.452,42.46,48.198,42.187,48.159z"></path><path d="M57.957,48.138l-0.127,0.019c-0.273,0.043-0.459,0.299-0.417,0.571c0.039,0.247,0.251,0.423,0.494,0.423   c0.025,0,0.052-0.002,0.078-0.006l0.116-0.018c0.273-0.039,0.462-0.293,0.423-0.566C58.484,48.288,58.236,48.091,57.957,48.138z"></path><path d="M40.616,47.898l-0.106-0.02c-0.273-0.049-0.484,0.139-0.534,0.411c-0.05,0.272,0.178,0.542,0.45,0.591l0.02,0.003   c0.032,0.006,0.063,0.009,0.094,0.009c0.233,0,0.436-0.168,0.481-0.407C41.074,48.214,40.887,47.95,40.616,47.898z"></path><path d="M59.506,47.875l-0.12,0.023c-0.271,0.052-0.449,0.314-0.396,0.585c0.046,0.239,0.255,0.405,0.49,0.405   c0.031,0,0.063-0.003,0.095-0.009l0.122-0.023c0.271-0.053,0.448-0.315,0.395-0.586S59.776,47.822,59.506,47.875z"></path><path d="M39.105,47.568c-0.001,0-0.121-0.031-0.122-0.031c-0.266-0.069-0.494,0.106-0.562,0.373   c-0.067,0.267,0.138,0.55,0.404,0.619l0.031,0.008c0.042,0.011,0.083,0.016,0.125,0.016c0.223,0,0.426-0.15,0.484-0.376   C39.534,47.909,39.373,47.636,39.105,47.568z"></path><path d="M61.034,47.532l-0.118,0.03c-0.268,0.068-0.429,0.341-0.36,0.608c0.058,0.226,0.261,0.376,0.484,0.376   c0.041,0,0.083-0.005,0.125-0.016l0.121-0.031c0.267-0.069,0.428-0.342,0.358-0.609C61.575,47.623,61.302,47.459,61.034,47.532z"></path><path d="M37.617,47.125l-0.104-0.037c-0.258-0.099-0.547,0.033-0.644,0.292c-0.098,0.258,0.033,0.547,0.292,0.644l0.126,0.046   c0.055,0.019,0.11,0.028,0.165,0.028c0.207,0,0.4-0.129,0.472-0.335C38.015,47.501,37.878,47.216,37.617,47.125z"></path><path d="M62.568,48.089c0.055,0,0.11-0.009,0.165-0.028l0.125-0.045c0.259-0.096,0.391-0.384,0.294-0.643   c-0.097-0.258-0.383-0.389-0.643-0.294l-0.106,0.039c-0.261,0.091-0.398,0.376-0.307,0.637   C62.168,47.96,62.362,48.089,62.568,48.089z"></path><path d="M50,51.453h0.073c0.276,0,0.5-0.224,0.5-0.5s-0.224-0.5-0.5-0.5H49.95c-0.276,0-0.475,0.224-0.475,0.5   S49.723,51.453,50,51.453z"></path><path d="M48.342,51.432l0.123,0.003c0.004,0,0.008,0,0.012,0c0.271,0,0.493-0.216,0.5-0.488c0.006-0.276-0.212-0.505-0.488-0.512   l-0.123-0.003c-0.283-0.02-0.505,0.212-0.512,0.488C47.847,51.196,48.065,51.425,48.342,51.432z"></path><path d="M51.546,51.434c0.004,0,0.008,0,0.012,0l0.122-0.003c0.276-0.007,0.495-0.236,0.488-0.512   c-0.007-0.276-0.241-0.511-0.512-0.488l-0.123,0.003c-0.276,0.007-0.494,0.236-0.488,0.512   C51.053,51.218,51.275,51.434,51.546,51.434z"></path><path d="M46.735,51.371l0.123,0.006c0.008,0,0.016,0,0.024,0c0.265,0,0.486-0.208,0.499-0.476c0.013-0.276-0.2-0.51-0.476-0.523   l-0.123-0.006c-0.257-0.018-0.509,0.2-0.523,0.476C46.246,51.123,46.459,51.357,46.735,51.371z"></path><path d="M53.14,51.376c0.01,0,0.021,0,0.031-0.001l0.116-0.006c0.276-0.013,0.489-0.248,0.476-0.523s-0.252-0.504-0.523-0.476   l-0.129,0.007c-0.275,0.017-0.485,0.253-0.469,0.529C52.658,51.172,52.878,51.376,53.14,51.376z"></path><path d="M45.186,51.271c0.001,0,0.066,0.005,0.067,0.005c0.012,0.001,0.024,0.001,0.036,0.001c0.26,0,0.479-0.201,0.498-0.464   c0.02-0.275-0.188-0.515-0.463-0.534l-0.122-0.009c-0.271-0.016-0.485,0.189-0.505,0.463   C44.676,51.007,44.911,51.249,45.186,51.271z"></path><path d="M54.814,50.268l-0.116,0.009c-0.275,0.02-0.482,0.259-0.462,0.535c0.019,0.263,0.238,0.464,0.498,0.464   c0.012,0,0.024,0,0.037-0.001l0.128-0.01c0.275-0.023,0.479-0.265,0.456-0.54C55.331,50.449,55.085,50.24,54.814,50.268z"></path><path d="M43.523,51.114l0.123,0.013c0.018,0.002,0.036,0.003,0.054,0.003c0.252,0,0.469-0.19,0.497-0.447   c0.029-0.274-0.169-0.521-0.444-0.55L43.63,50.12c-0.273-0.034-0.521,0.168-0.551,0.443C43.05,50.838,43.248,51.084,43.523,51.114z   "></path><path d="M56.322,51.128c0.02,0,0.04-0.001,0.06-0.003l0.117-0.013c0.275-0.03,0.473-0.276,0.443-0.551   c-0.03-0.275-0.28-0.474-0.551-0.443l-0.127,0.014c-0.274,0.033-0.47,0.281-0.438,0.556C55.856,50.942,56.072,51.128,56.322,51.128   z"></path><path d="M41.922,50.909l0.122,0.018c0.024,0.004,0.048,0.005,0.072,0.005c0.245,0,0.458-0.179,0.494-0.428   c0.04-0.273-0.15-0.527-0.423-0.566l-0.122-0.018c-0.279-0.046-0.528,0.149-0.566,0.423C41.459,50.616,41.649,50.87,41.922,50.909z   "></path><path d="M57.906,50.929c0.025,0,0.052-0.002,0.078-0.006l0.116-0.018c0.273-0.039,0.462-0.293,0.423-0.566   c-0.039-0.273-0.287-0.472-0.566-0.423l-0.127,0.019c-0.273,0.043-0.459,0.299-0.417,0.571   C57.451,50.753,57.664,50.929,57.906,50.929z"></path><path d="M40.426,50.659l0.02,0.003c0.032,0.006,0.063,0.009,0.094,0.009c0.233,0,0.436-0.168,0.481-0.407   c0.052-0.271-0.135-0.535-0.406-0.587l-0.106-0.02c-0.272-0.051-0.484,0.139-0.534,0.411   C39.926,50.339,40.154,50.609,40.426,50.659z"></path><path d="M59.506,49.653l-0.12,0.023c-0.271,0.052-0.449,0.314-0.396,0.585c0.046,0.239,0.255,0.405,0.49,0.405   c0.031,0,0.063-0.003,0.095-0.009l0.122-0.023c0.271-0.053,0.448-0.315,0.395-0.586C60.04,49.777,59.776,49.598,59.506,49.653z"></path><path d="M38.825,50.307l0.031,0.008c0.042,0.011,0.083,0.016,0.125,0.016c0.223,0,0.426-0.15,0.484-0.376   c0.068-0.268-0.093-0.54-0.36-0.608c0,0-0.121-0.031-0.122-0.031c-0.265-0.067-0.494,0.106-0.562,0.373   C38.354,49.956,38.559,50.238,38.825,50.307z"></path><path d="M61.034,49.311l-0.118,0.03c-0.268,0.068-0.429,0.341-0.36,0.608c0.058,0.226,0.261,0.376,0.484,0.376   c0.041,0,0.083-0.005,0.125-0.016l0.121-0.031c0.267-0.069,0.428-0.342,0.358-0.609C61.575,49.402,61.302,49.24,61.034,49.311z"></path><path d="M37.16,49.802l0.126,0.046c0.055,0.019,0.11,0.028,0.165,0.028c0.207,0,0.4-0.129,0.472-0.335   c0.091-0.261-0.046-0.546-0.307-0.637l-0.104-0.037c-0.259-0.099-0.547,0.033-0.644,0.292   C36.771,49.416,36.901,49.705,37.16,49.802z"></path><path d="M62.51,48.857l-0.106,0.039c-0.261,0.091-0.398,0.376-0.307,0.637c0.072,0.206,0.266,0.335,0.472,0.335   c0.055,0,0.11-0.009,0.165-0.028l0.125-0.045c0.259-0.096,0.391-0.384,0.294-0.643C63.057,48.894,62.77,48.762,62.51,48.857z"></path><path d="M50.073,52.231H49.95c-0.276,0-0.475,0.224-0.475,0.5s0.248,0.5,0.524,0.5h0.074c0.276,0,0.5-0.224,0.5-0.5   S50.35,52.231,50.073,52.231z"></path><path d="M48.489,52.214l-0.123-0.003c-0.283-0.012-0.505,0.212-0.512,0.488c-0.006,0.276,0.212,0.505,0.488,0.512l0.123,0.003   c0.004,0,0.008,0,0.012,0c0.271,0,0.493-0.216,0.5-0.488C48.983,52.45,48.765,52.221,48.489,52.214z"></path><path d="M51.657,52.21l-0.123,0.003c-0.276,0.007-0.494,0.236-0.488,0.512c0.007,0.272,0.229,0.488,0.5,0.488   c0.004,0,0.008,0,0.013,0l0.122-0.003c0.276-0.007,0.495-0.236,0.488-0.512C52.162,52.422,51.927,52.195,51.657,52.21z"></path><path d="M46.906,52.156l-0.123-0.006c-0.257-0.011-0.509,0.2-0.523,0.476c-0.013,0.276,0.2,0.51,0.476,0.523l0.123,0.006   c0.008,0,0.016,0,0.024,0c0.265,0,0.486-0.208,0.499-0.476C47.395,52.404,47.182,52.169,46.906,52.156z"></path><path d="M53.24,52.149l-0.129,0.007c-0.275,0.017-0.485,0.253-0.469,0.529c0.016,0.265,0.236,0.47,0.499,0.47   c0.01,0,0.021,0,0.031-0.001l0.116-0.006c0.276-0.013,0.489-0.248,0.476-0.523C53.75,52.349,53.511,52.127,53.24,52.149z"></path><path d="M45.325,52.057l-0.122-0.009c-0.271-0.016-0.485,0.189-0.505,0.463c-0.021,0.275,0.214,0.517,0.489,0.538   c0,0,0.066,0.005,0.067,0.005c0.012,0.001,0.024,0.001,0.036,0.001c0.26,0,0.479-0.201,0.498-0.464   C45.808,52.316,45.6,52.077,45.325,52.057z"></path><path d="M54.814,52.047l-0.116,0.009c-0.275,0.02-0.482,0.259-0.462,0.535c0.019,0.263,0.238,0.464,0.498,0.464   c0.012,0,0.024,0,0.037-0.001l0.128-0.01c0.275-0.023,0.479-0.265,0.456-0.54C55.331,52.228,55.085,52.019,54.814,52.047z"></path><path d="M43.752,51.913l-0.122-0.013c-0.273-0.032-0.521,0.168-0.551,0.443c-0.03,0.274,0.168,0.521,0.443,0.551l0.123,0.013   c0.018,0.002,0.036,0.003,0.054,0.003c0.252,0,0.469-0.19,0.497-0.447C44.226,52.188,44.027,51.942,43.752,51.913z"></path><path d="M56.392,51.896l-0.127,0.014c-0.274,0.033-0.47,0.281-0.438,0.556c0.03,0.254,0.246,0.441,0.496,0.441   c0.02,0,0.04-0.001,0.06-0.003l0.117-0.013c0.275-0.03,0.473-0.276,0.443-0.551C56.913,52.065,56.662,51.868,56.392,51.896z"></path><path d="M42.187,51.716l-0.122-0.018c-0.279-0.049-0.528,0.149-0.566,0.423c-0.04,0.273,0.15,0.527,0.423,0.566l0.122,0.018   c0.024,0.004,0.048,0.005,0.072,0.005c0.245,0,0.458-0.179,0.494-0.428C42.65,52.009,42.46,51.755,42.187,51.716z"></path><path d="M57.957,51.695l-0.127,0.019c-0.273,0.043-0.459,0.299-0.417,0.571c0.039,0.247,0.251,0.423,0.494,0.423   c0.025,0,0.052-0.002,0.078-0.006l0.116-0.018c0.273-0.039,0.462-0.293,0.423-0.566C58.484,51.845,58.236,51.648,57.957,51.695z"></path><path d="M40.616,51.456l-0.106-0.02c-0.273-0.047-0.484,0.139-0.534,0.411c-0.05,0.272,0.178,0.542,0.45,0.591l0.02,0.003   c0.032,0.006,0.063,0.009,0.094,0.009c0.233,0,0.436-0.168,0.481-0.407C41.074,51.772,40.887,51.508,40.616,51.456z"></path><path d="M59.506,51.432l-0.12,0.023c-0.271,0.052-0.449,0.314-0.396,0.585c0.046,0.239,0.255,0.405,0.49,0.405   c0.031,0,0.063-0.003,0.095-0.009l0.122-0.023c0.271-0.053,0.448-0.315,0.395-0.586S59.776,51.379,59.506,51.432z"></path><path d="M39.105,51.125c-0.001,0-0.121-0.031-0.122-0.031c-0.266-0.069-0.494,0.105-0.562,0.373   c-0.067,0.267,0.138,0.55,0.404,0.619l0.031,0.008c0.042,0.011,0.083,0.016,0.125,0.016c0.223,0,0.426-0.15,0.484-0.376   C39.534,51.466,39.373,51.194,39.105,51.125z"></path><path d="M61.034,51.089l-0.118,0.03c-0.268,0.068-0.429,0.341-0.36,0.608c0.058,0.226,0.261,0.376,0.484,0.376   c0.041,0,0.083-0.005,0.125-0.016l0.121-0.031c0.267-0.069,0.428-0.342,0.358-0.609C61.575,51.181,61.302,51.017,61.034,51.089z"></path><path d="M37.617,50.682l-0.104-0.037c-0.258-0.098-0.547,0.033-0.644,0.292c-0.098,0.258,0.033,0.547,0.292,0.644l0.126,0.046   c0.055,0.019,0.11,0.028,0.165,0.028c0.207,0,0.4-0.129,0.472-0.335C38.015,51.059,37.878,50.773,37.617,50.682z"></path><path d="M62.568,51.647c0.055,0,0.11-0.009,0.165-0.028l0.125-0.045c0.259-0.096,0.391-0.384,0.294-0.643   c-0.097-0.258-0.383-0.391-0.643-0.294l-0.106,0.039c-0.261,0.091-0.398,0.376-0.307,0.637   C62.168,51.518,62.362,51.647,62.568,51.647z"></path><path d="M50.073,54.01H49.95c-0.276,0-0.475,0.224-0.475,0.5s0.248,0.5,0.524,0.5h0.074c0.276,0,0.5-0.224,0.5-0.5   S50.35,54.01,50.073,54.01z"></path><path d="M48.489,53.993l-0.123-0.003c-0.283-0.004-0.505,0.212-0.512,0.488c-0.006,0.276,0.212,0.505,0.488,0.512l0.123,0.003   c0.004,0,0.008,0,0.012,0c0.271,0,0.493-0.216,0.5-0.488C48.983,54.229,48.765,54,48.489,53.993z"></path><path d="M51.657,53.989l-0.123,0.003c-0.276,0.007-0.494,0.236-0.488,0.512c0.007,0.272,0.229,0.488,0.5,0.488   c0.004,0,0.008,0,0.012,0l0.122-0.003c0.276-0.007,0.495-0.236,0.488-0.512C52.162,54.201,51.927,53.982,51.657,53.989z"></path><path d="M46.906,53.935l-0.123-0.006c-0.257-0.004-0.509,0.2-0.523,0.476c-0.013,0.276,0.2,0.51,0.476,0.523l0.123,0.006   c0.008,0,0.016,0,0.024,0c0.265,0,0.486-0.208,0.499-0.476C47.395,54.183,47.182,53.948,46.906,53.935z"></path><path d="M53.24,53.928l-0.129,0.007c-0.275,0.017-0.485,0.253-0.469,0.529c0.016,0.265,0.236,0.47,0.499,0.47   c0.01,0,0.021,0,0.031-0.001l0.116-0.006c0.276-0.013,0.489-0.248,0.476-0.523C53.75,54.127,53.511,53.913,53.24,53.928z"></path><path d="M45.325,53.836l-0.122-0.009c-0.271-0.015-0.485,0.189-0.505,0.463c-0.021,0.275,0.214,0.517,0.489,0.538   c0,0,0.066,0.005,0.067,0.005c0.012,0.001,0.024,0.001,0.036,0.001c0.26,0,0.479-0.201,0.498-0.464   C45.808,54.095,45.6,53.855,45.325,53.836z"></path><path d="M54.814,53.826l-0.116,0.009c-0.275,0.02-0.482,0.259-0.462,0.535c0.019,0.263,0.238,0.464,0.498,0.464   c0.012,0,0.024,0,0.037-0.001l0.128-0.01c0.275-0.023,0.479-0.265,0.456-0.54C55.331,54.007,55.085,53.797,54.814,53.826z"></path><path d="M43.752,53.691l-0.122-0.013c-0.273-0.03-0.521,0.168-0.551,0.443c-0.03,0.274,0.168,0.521,0.443,0.551l0.123,0.013   c0.018,0.002,0.036,0.003,0.054,0.003c0.252,0,0.469-0.19,0.497-0.447C44.226,53.967,44.027,53.721,43.752,53.691z"></path><path d="M56.392,53.675l-0.127,0.014c-0.274,0.033-0.47,0.281-0.438,0.556c0.03,0.254,0.246,0.441,0.496,0.441   c0.02,0,0.04-0.001,0.06-0.003l0.117-0.013c0.275-0.03,0.473-0.276,0.443-0.551S56.662,53.642,56.392,53.675z"></path><path d="M42.187,53.495l-0.122-0.018c-0.279-0.046-0.528,0.149-0.566,0.423c-0.04,0.273,0.15,0.527,0.423,0.566l0.122,0.018   c0.024,0.004,0.048,0.005,0.072,0.005c0.245,0,0.458-0.179,0.494-0.428C42.65,53.788,42.46,53.534,42.187,53.495z"></path><path d="M57.957,53.474l-0.127,0.019c-0.273,0.043-0.459,0.299-0.417,0.571c0.039,0.247,0.251,0.423,0.494,0.423   c0.025,0,0.052-0.002,0.078-0.006l0.116-0.018c0.273-0.039,0.462-0.293,0.423-0.566C58.484,53.624,58.236,53.43,57.957,53.474z"></path><path d="M40.616,53.234l-0.106-0.02c-0.273-0.049-0.484,0.139-0.534,0.411c-0.05,0.272,0.178,0.542,0.45,0.591l0.02,0.003   c0.032,0.006,0.063,0.009,0.094,0.009c0.233,0,0.436-0.168,0.481-0.407C41.074,53.551,40.887,53.287,40.616,53.234z"></path><path d="M59.506,53.211l-0.12,0.023c-0.271,0.052-0.449,0.314-0.396,0.585c0.046,0.239,0.255,0.405,0.49,0.405   c0.031,0,0.063-0.003,0.095-0.009l0.122-0.023c0.271-0.053,0.448-0.315,0.395-0.586C60.04,53.334,59.776,53.156,59.506,53.211z"></path><path d="M39.105,52.904c-0.001,0-0.121-0.031-0.122-0.031c-0.266-0.067-0.494,0.106-0.562,0.373   c-0.067,0.267,0.138,0.55,0.404,0.619l0.031,0.008c0.042,0.011,0.083,0.016,0.125,0.016c0.223,0,0.426-0.15,0.484-0.376   C39.534,53.245,39.373,52.973,39.105,52.904z"></path><path d="M61.034,52.868l-0.118,0.03c-0.268,0.068-0.429,0.341-0.36,0.608c0.058,0.226,0.261,0.376,0.484,0.376   c0.041,0,0.083-0.005,0.125-0.016l0.121-0.031c0.267-0.069,0.428-0.342,0.358-0.609C61.575,52.959,61.302,52.798,61.034,52.868z"></path><path d="M37.617,52.461l-0.104-0.037c-0.258-0.099-0.547,0.033-0.644,0.292c-0.098,0.258,0.033,0.547,0.292,0.644l0.126,0.046   c0.055,0.019,0.11,0.028,0.165,0.028c0.207,0,0.4-0.129,0.472-0.335C38.015,52.837,37.878,52.552,37.617,52.461z"></path><path d="M62.568,53.426c0.055,0,0.11-0.009,0.165-0.028l0.125-0.045c0.259-0.096,0.391-0.384,0.294-0.643   c-0.097-0.258-0.383-0.389-0.643-0.294l-0.106,0.039c-0.261,0.091-0.398,0.376-0.307,0.637   C62.168,53.297,62.362,53.426,62.568,53.426z"></path><path d="M50,56.79h0.073c0.276,0,0.5-0.224,0.5-0.5s-0.224-0.5-0.5-0.5H49.95c-0.276,0-0.475,0.224-0.475,0.5   S49.723,56.79,50,56.79z"></path><path d="M48.342,56.769l0.123,0.003c0.004,0,0.008,0,0.012,0c0.271,0,0.493-0.216,0.5-0.488c0.006-0.276-0.212-0.505-0.488-0.512   l-0.123-0.003c-0.283,0.004-0.505,0.212-0.512,0.488C47.847,56.533,48.065,56.762,48.342,56.769z"></path><path d="M51.546,56.771c0.004,0,0.008,0,0.012,0l0.122-0.003c0.276-0.007,0.495-0.236,0.488-0.512   c-0.007-0.276-0.241-0.487-0.512-0.488l-0.123,0.003c-0.276,0.007-0.494,0.236-0.488,0.512   C51.053,56.555,51.275,56.771,51.546,56.771z"></path><path d="M46.735,56.708l0.123,0.006c0.008,0,0.016,0,0.024,0c0.265,0,0.486-0.208,0.499-0.476c0.013-0.276-0.2-0.51-0.476-0.523   l-0.123-0.006c-0.257-0.015-0.509,0.2-0.523,0.476C46.246,56.46,46.459,56.694,46.735,56.708z"></path><path d="M53.14,56.713c0.01,0,0.021,0,0.031-0.001l0.116-0.006c0.276-0.013,0.489-0.248,0.476-0.523s-0.252-0.501-0.523-0.476   l-0.129,0.007c-0.275,0.017-0.485,0.253-0.469,0.529C52.658,56.509,52.878,56.713,53.14,56.713z"></path><path d="M45.186,56.607c0.001,0,0.066,0.005,0.067,0.005c0.012,0.001,0.024,0.001,0.036,0.001c0.26,0,0.479-0.201,0.498-0.464   c0.02-0.275-0.188-0.515-0.463-0.534l-0.122-0.009c-0.271-0.015-0.485,0.189-0.505,0.463   C44.676,56.344,44.911,56.586,45.186,56.607z"></path><path d="M54.814,55.605l-0.116,0.009c-0.275,0.02-0.482,0.259-0.462,0.535c0.019,0.263,0.238,0.464,0.498,0.464   c0.012,0,0.024,0,0.037-0.001l0.128-0.01c0.275-0.023,0.479-0.265,0.456-0.54C55.331,55.786,55.085,55.576,54.814,55.605z"></path><path d="M43.523,56.451l0.123,0.013c0.018,0.002,0.036,0.003,0.054,0.003c0.252,0,0.469-0.19,0.497-0.447   c0.029-0.274-0.169-0.521-0.444-0.55l-0.122-0.013c-0.273-0.028-0.521,0.168-0.551,0.443C43.05,56.175,43.248,56.421,43.523,56.451   z"></path><path d="M56.322,56.465c0.02,0,0.04-0.001,0.06-0.003l0.117-0.013c0.275-0.03,0.473-0.276,0.443-0.551   c-0.03-0.275-0.28-0.476-0.551-0.443l-0.127,0.014c-0.274,0.033-0.47,0.281-0.438,0.556C55.856,56.279,56.072,56.465,56.322,56.465   z"></path><path d="M41.922,56.246l0.122,0.018c0.024,0.004,0.048,0.005,0.072,0.005c0.245,0,0.458-0.179,0.494-0.428   c0.04-0.273-0.15-0.527-0.423-0.566l-0.122-0.018c-0.279-0.044-0.528,0.149-0.566,0.423C41.459,55.953,41.649,56.207,41.922,56.246   z"></path><path d="M57.906,56.266c0.025,0,0.052-0.002,0.078-0.006l0.116-0.018c0.273-0.039,0.462-0.293,0.423-0.566   c-0.039-0.273-0.287-0.47-0.566-0.423l-0.127,0.019c-0.273,0.043-0.459,0.299-0.417,0.571   C57.451,56.09,57.664,56.266,57.906,56.266z"></path><path d="M40.426,55.996l0.02,0.003c0.032,0.006,0.063,0.009,0.094,0.009c0.233,0,0.436-0.168,0.481-0.407   c0.052-0.271-0.135-0.535-0.406-0.587l-0.106-0.02c-0.272-0.051-0.484,0.139-0.534,0.411   C39.926,55.676,40.154,55.946,40.426,55.996z"></path><path d="M59.506,54.99l-0.12,0.023c-0.271,0.052-0.449,0.314-0.396,0.585c0.046,0.239,0.255,0.405,0.49,0.405   c0.031,0,0.063-0.003,0.095-0.009l0.122-0.023c0.271-0.053,0.448-0.315,0.395-0.586C60.04,55.114,59.776,54.937,59.506,54.99z"></path><path d="M38.825,55.644l0.031,0.008c0.042,0.011,0.083,0.016,0.125,0.016c0.223,0,0.426-0.15,0.484-0.376   c0.068-0.268-0.093-0.54-0.36-0.608c0,0-0.121-0.031-0.122-0.031c-0.265-0.069-0.494,0.106-0.562,0.373   C38.354,55.292,38.559,55.575,38.825,55.644z"></path><path d="M61.034,54.647l-0.118,0.03c-0.268,0.068-0.429,0.341-0.36,0.608c0.058,0.226,0.261,0.376,0.484,0.376   c0.041,0,0.083-0.005,0.125-0.016l0.121-0.031c0.267-0.069,0.428-0.342,0.358-0.609C61.575,54.739,61.302,54.575,61.034,54.647z"></path><path d="M37.16,55.139l0.126,0.046c0.055,0.019,0.11,0.028,0.165,0.028c0.207,0,0.4-0.129,0.472-0.335   c0.091-0.261-0.046-0.546-0.307-0.637l-0.104-0.037c-0.259-0.099-0.547,0.033-0.644,0.292   C36.771,54.753,36.901,55.042,37.16,55.139z"></path><path d="M62.51,54.194l-0.106,0.039c-0.261,0.091-0.398,0.376-0.307,0.637c0.072,0.206,0.266,0.335,0.472,0.335   c0.055,0,0.11-0.009,0.165-0.028l0.125-0.045c0.259-0.096,0.391-0.384,0.294-0.643C63.057,54.23,62.77,54.099,62.51,54.194z"></path><path d="M50.073,57.568H49.95c-0.276,0-0.475,0.224-0.475,0.5s0.248,0.5,0.524,0.5h0.074c0.276,0,0.5-0.224,0.5-0.5   S50.35,57.568,50.073,57.568z"></path><path d="M48.489,57.55l-0.123-0.003c-0.283-0.022-0.505,0.212-0.512,0.488c-0.006,0.276,0.212,0.505,0.488,0.512l0.123,0.003   c0.004,0,0.008,0,0.012,0c0.271,0,0.493-0.216,0.5-0.488C48.983,57.786,48.765,57.557,48.489,57.55z"></path><path d="M51.657,57.546l-0.123,0.003c-0.276,0.007-0.494,0.236-0.488,0.512c0.007,0.272,0.229,0.488,0.5,0.488   c0.004,0,0.008,0,0.012,0l0.122-0.003c0.276-0.007,0.495-0.236,0.488-0.512C52.162,57.759,51.927,57.521,51.657,57.546z"></path><path d="M46.906,57.493l-0.123-0.006c-0.257-0.007-0.509,0.2-0.523,0.476c-0.013,0.276,0.2,0.51,0.476,0.523l0.123,0.006   c0.008,0,0.016,0,0.024,0c0.265,0,0.486-0.208,0.499-0.476C47.395,57.74,47.182,57.506,46.906,57.493z"></path><path d="M53.24,57.486l-0.129,0.007c-0.275,0.017-0.485,0.253-0.469,0.529c0.016,0.265,0.236,0.47,0.499,0.47   c0.01,0,0.021,0,0.031-0.001l0.116-0.006c0.276-0.013,0.489-0.248,0.476-0.523C53.75,57.685,53.511,57.467,53.24,57.486z"></path><path d="M45.325,57.394l-0.122-0.009c-0.271-0.014-0.485,0.189-0.505,0.463c-0.021,0.275,0.214,0.517,0.489,0.538   c0,0,0.066,0.005,0.067,0.005c0.012,0.001,0.024,0.001,0.036,0.001c0.26,0,0.479-0.201,0.498-0.464   C45.808,57.652,45.6,57.413,45.325,57.394z"></path><path d="M54.814,57.383l-0.116,0.009c-0.275,0.02-0.482,0.259-0.462,0.535c0.019,0.263,0.238,0.464,0.498,0.464   c0.012,0,0.024,0,0.037-0.001l0.128-0.01c0.275-0.023,0.479-0.265,0.456-0.54C55.331,57.564,55.085,57.354,54.814,57.383z"></path><path d="M43.752,57.249l-0.122-0.013c-0.273-0.034-0.521,0.168-0.551,0.443c-0.03,0.274,0.168,0.521,0.443,0.551l0.123,0.013   c0.018,0.002,0.036,0.003,0.054,0.003c0.252,0,0.469-0.19,0.497-0.447C44.226,57.525,44.027,57.278,43.752,57.249z"></path><path d="M56.392,57.233l-0.127,0.014c-0.274,0.033-0.47,0.281-0.438,0.556c0.03,0.254,0.246,0.441,0.496,0.441   c0.02,0,0.04-0.001,0.06-0.003l0.117-0.013c0.275-0.03,0.473-0.276,0.443-0.551C56.913,57.401,56.662,57.203,56.392,57.233z"></path><path d="M42.187,57.053l-0.122-0.018c-0.279-0.047-0.528,0.149-0.566,0.423c-0.04,0.273,0.15,0.527,0.423,0.566l0.122,0.018   c0.024,0.004,0.048,0.005,0.072,0.005c0.245,0,0.458-0.179,0.494-0.428C42.65,57.346,42.46,57.092,42.187,57.053z"></path><path d="M57.957,57.032L57.83,57.05c-0.273,0.043-0.459,0.299-0.417,0.571c0.039,0.247,0.251,0.423,0.494,0.423   c0.025,0,0.052-0.002,0.078-0.006l0.116-0.018c0.273-0.039,0.462-0.293,0.423-0.566C58.484,57.181,58.236,56.988,57.957,57.032z"></path><path d="M40.616,56.792l-0.106-0.02c-0.273-0.051-0.484,0.139-0.534,0.411c-0.05,0.272,0.178,0.542,0.45,0.591l0.02,0.003   c0.032,0.006,0.063,0.009,0.094,0.009c0.233,0,0.436-0.168,0.481-0.407C41.074,57.108,40.887,56.844,40.616,56.792z"></path><path d="M59.506,56.769l-0.12,0.023c-0.271,0.052-0.449,0.314-0.396,0.585c0.046,0.239,0.255,0.405,0.49,0.405   c0.031,0,0.063-0.003,0.095-0.009l0.122-0.023c0.271-0.053,0.448-0.315,0.395-0.586C60.04,56.892,59.776,56.714,59.506,56.769z"></path><path d="M39.105,56.462c-0.001,0-0.121-0.031-0.122-0.031c-0.266-0.067-0.494,0.106-0.562,0.373   c-0.067,0.267,0.138,0.55,0.404,0.619l0.031,0.008c0.042,0.011,0.083,0.016,0.125,0.016c0.223,0,0.426-0.15,0.484-0.376   C39.534,56.803,39.373,56.53,39.105,56.462z"></path><path d="M61.034,56.426l-0.118,0.03c-0.268,0.068-0.429,0.341-0.36,0.608c0.058,0.226,0.261,0.376,0.484,0.376   c0.041,0,0.083-0.005,0.125-0.016l0.121-0.031c0.267-0.069,0.428-0.342,0.358-0.609C61.575,56.517,61.302,56.356,61.034,56.426z"></path><path d="M37.617,56.019l-0.104-0.037c-0.258-0.098-0.547,0.033-0.644,0.292c-0.098,0.258,0.033,0.547,0.292,0.644l0.126,0.046   c0.055,0.019,0.11,0.028,0.165,0.028c0.207,0,0.4-0.129,0.472-0.335C38.015,56.395,37.878,56.11,37.617,56.019z"></path><path d="M62.568,56.983c0.055,0,0.11-0.009,0.165-0.028l0.125-0.045c0.259-0.096,0.391-0.384,0.294-0.643   c-0.097-0.258-0.383-0.391-0.643-0.294l-0.106,0.039c-0.261,0.091-0.398,0.376-0.307,0.637   C62.168,56.854,62.362,56.983,62.568,56.983z"></path><path d="M50.073,59.347H49.95c-0.276,0-0.475,0.224-0.475,0.5s0.248,0.5,0.524,0.5h0.074c0.276,0,0.5-0.224,0.5-0.5   S50.35,59.347,50.073,59.347z"></path><path d="M48.489,59.33l-0.123-0.003c-0.283-0.014-0.505,0.212-0.512,0.488c-0.006,0.276,0.212,0.505,0.488,0.512l0.123,0.003   c0.004,0,0.008,0,0.012,0c0.271,0,0.493-0.216,0.5-0.488C48.983,59.565,48.765,59.336,48.489,59.33z"></path><path d="M51.657,59.326l-0.123,0.003c-0.276,0.007-0.494,0.236-0.488,0.512c0.007,0.272,0.229,0.488,0.5,0.488   c0.004,0,0.008,0,0.012,0l0.122-0.003c0.276-0.007,0.495-0.236,0.488-0.512C52.162,59.538,51.927,59.308,51.657,59.326z"></path><path d="M46.906,59.272l-0.123-0.006c-0.257-0.018-0.509,0.2-0.523,0.476c-0.013,0.276,0.2,0.51,0.476,0.523l0.123,0.006   c0.008,0,0.016,0,0.024,0c0.265,0,0.486-0.208,0.499-0.476C47.395,59.52,47.182,59.285,46.906,59.272z"></path><path d="M53.24,59.265l-0.129,0.007c-0.275,0.017-0.485,0.253-0.469,0.529c0.016,0.265,0.236,0.47,0.499,0.47   c0.01,0,0.021,0,0.031-0.001l0.116-0.006c0.276-0.013,0.489-0.248,0.476-0.523S53.511,59.236,53.24,59.265z"></path><path d="M45.325,59.173l-0.122-0.009c-0.271-0.015-0.485,0.189-0.505,0.463c-0.021,0.275,0.214,0.517,0.489,0.538   c0,0,0.066,0.005,0.067,0.005c0.012,0.001,0.024,0.001,0.036,0.001c0.26,0,0.479-0.201,0.498-0.464   C45.808,59.432,45.6,59.192,45.325,59.173z"></path><path d="M54.814,59.163l-0.116,0.009c-0.275,0.02-0.482,0.259-0.462,0.535c0.019,0.263,0.238,0.464,0.498,0.464   c0.012,0,0.024,0,0.037-0.001l0.128-0.01c0.275-0.023,0.479-0.265,0.456-0.54C55.331,59.344,55.085,59.133,54.814,59.163z"></path><path d="M43.752,59.028l-0.122-0.013c-0.273-0.032-0.521,0.168-0.551,0.443c-0.03,0.274,0.168,0.521,0.443,0.551l0.123,0.013   c0.018,0.002,0.036,0.003,0.054,0.003c0.252,0,0.469-0.19,0.497-0.447C44.226,59.304,44.027,59.058,43.752,59.028z"></path><path d="M56.392,59.012l-0.127,0.014c-0.274,0.033-0.47,0.281-0.438,0.556c0.03,0.254,0.246,0.441,0.496,0.441   c0.02,0,0.04-0.001,0.06-0.003l0.117-0.013c0.275-0.03,0.473-0.276,0.443-0.551C56.913,59.181,56.662,58.983,56.392,59.012z"></path><path d="M42.187,58.832l-0.122-0.018c-0.279-0.045-0.528,0.149-0.566,0.423c-0.04,0.273,0.15,0.527,0.423,0.566l0.122,0.018   c0.024,0.004,0.048,0.005,0.072,0.005c0.245,0,0.458-0.179,0.494-0.428C42.65,59.125,42.46,58.871,42.187,58.832z"></path><path d="M57.957,58.811L57.83,58.83c-0.273,0.043-0.459,0.299-0.417,0.571c0.039,0.247,0.251,0.423,0.494,0.423   c0.025,0,0.052-0.002,0.078-0.006l0.116-0.018c0.273-0.039,0.462-0.293,0.423-0.566C58.484,58.961,58.236,58.764,57.957,58.811z"></path><path d="M40.616,58.571l-0.106-0.02c-0.273-0.048-0.484,0.139-0.534,0.411c-0.05,0.272,0.178,0.542,0.45,0.591l0.02,0.003   c0.032,0.006,0.063,0.009,0.094,0.009c0.233,0,0.436-0.168,0.481-0.407C41.074,58.888,40.887,58.624,40.616,58.571z"></path><path d="M59.506,58.548l-0.12,0.023c-0.271,0.052-0.449,0.314-0.396,0.585c0.046,0.239,0.255,0.405,0.49,0.405   c0.031,0,0.063-0.003,0.095-0.009l0.122-0.023c0.271-0.053,0.448-0.315,0.395-0.586S59.776,58.495,59.506,58.548z"></path><path d="M39.105,58.241c-0.001,0-0.121-0.031-0.122-0.031c-0.266-0.069-0.494,0.106-0.562,0.373   c-0.067,0.267,0.138,0.55,0.404,0.619l0.031,0.008c0.042,0.011,0.083,0.016,0.125,0.016c0.223,0,0.426-0.15,0.484-0.376   C39.534,58.582,39.373,58.31,39.105,58.241z"></path><path d="M61.034,58.205l-0.118,0.03c-0.268,0.068-0.429,0.341-0.36,0.608c0.058,0.226,0.261,0.376,0.484,0.376   c0.041,0,0.083-0.005,0.125-0.016l0.121-0.031c0.267-0.069,0.428-0.342,0.358-0.609C61.575,58.296,61.302,58.133,61.034,58.205z"></path><path d="M37.617,57.798l-0.104-0.037c-0.258-0.098-0.547,0.033-0.644,0.292c-0.098,0.258,0.033,0.547,0.292,0.644l0.126,0.046   c0.055,0.019,0.11,0.028,0.165,0.028c0.207,0,0.4-0.129,0.472-0.335C38.015,58.174,37.878,57.889,37.617,57.798z"></path><path d="M62.568,58.763c0.055,0,0.11-0.009,0.165-0.028l0.125-0.045c0.259-0.096,0.391-0.384,0.294-0.643   c-0.097-0.258-0.383-0.39-0.643-0.294l-0.106,0.039c-0.261,0.091-0.398,0.376-0.307,0.637   C62.168,58.634,62.362,58.763,62.568,58.763z"></path><path d="M50,62.126h0.073c0.276,0,0.5-0.224,0.5-0.5s-0.224-0.5-0.5-0.5H49.95c-0.276,0-0.475,0.224-0.475,0.5   S49.723,62.126,50,62.126z"></path><path d="M48.342,62.105l0.123,0.003c0.004,0,0.008,0,0.012,0c0.271,0,0.493-0.216,0.5-0.488c0.006-0.276-0.212-0.505-0.488-0.512   l-0.123-0.003c-0.283-0.006-0.505,0.212-0.512,0.488C47.847,61.87,48.065,62.099,48.342,62.105z"></path><path d="M51.545,62.107c0.004,0,0.008,0,0.013,0l0.122-0.003c0.276-0.007,0.495-0.236,0.488-0.512   c-0.007-0.276-0.241-0.498-0.512-0.488l-0.123,0.003c-0.276,0.007-0.494,0.236-0.488,0.512   C51.053,61.892,51.275,62.107,51.545,62.107z"></path><path d="M46.735,62.044l0.123,0.006c0.008,0,0.016,0,0.024,0c0.265,0,0.486-0.208,0.499-0.476c0.013-0.276-0.2-0.51-0.476-0.523   l-0.123-0.006c-0.257-0.011-0.509,0.2-0.523,0.476C46.246,61.796,46.459,62.031,46.735,62.044z"></path><path d="M53.14,62.05c0.01,0,0.021,0,0.031-0.001l0.116-0.006c0.276-0.013,0.489-0.248,0.476-0.523   c-0.013-0.276-0.252-0.498-0.523-0.476l-0.129,0.007c-0.275,0.017-0.485,0.253-0.469,0.529C52.658,61.845,52.878,62.05,53.14,62.05   z"></path><path d="M45.186,61.944c0.001,0,0.066,0.005,0.067,0.005c0.012,0.001,0.024,0.001,0.036,0.001c0.26,0,0.479-0.201,0.498-0.464   c0.02-0.275-0.188-0.515-0.463-0.534l-0.122-0.009c-0.271-0.014-0.485,0.189-0.505,0.463   C44.676,61.681,44.911,61.922,45.186,61.944z"></path><path d="M54.814,60.941l-0.116,0.009c-0.275,0.02-0.482,0.259-0.462,0.535c0.019,0.263,0.238,0.464,0.498,0.464   c0.012,0,0.024,0,0.037-0.001l0.128-0.01c0.275-0.023,0.479-0.265,0.456-0.54C55.331,61.123,55.085,60.912,54.814,60.941z"></path><path d="M43.523,61.788l0.123,0.013c0.018,0.002,0.036,0.003,0.054,0.003c0.252,0,0.469-0.19,0.497-0.447   c0.029-0.274-0.169-0.521-0.444-0.55l-0.122-0.013c-0.273-0.03-0.521,0.168-0.551,0.443C43.05,61.511,43.248,61.758,43.523,61.788z   "></path><path d="M56.322,61.802c0.02,0,0.04-0.001,0.06-0.003l0.117-0.013c0.275-0.03,0.473-0.276,0.443-0.551s-0.28-0.478-0.551-0.443   l-0.127,0.014c-0.274,0.033-0.47,0.281-0.438,0.556C55.856,61.615,56.072,61.802,56.322,61.802z"></path><path d="M41.922,61.583l0.122,0.018c0.024,0.004,0.048,0.005,0.072,0.005c0.245,0,0.458-0.179,0.494-0.428   c0.04-0.273-0.15-0.527-0.423-0.566l-0.122-0.018c-0.279-0.048-0.528,0.149-0.566,0.423C41.459,61.29,41.649,61.543,41.922,61.583z   "></path><path d="M57.906,61.603c0.025,0,0.052-0.002,0.078-0.006l0.116-0.018c0.273-0.039,0.462-0.293,0.423-0.566   c-0.039-0.273-0.287-0.468-0.566-0.423l-0.127,0.019c-0.273,0.043-0.459,0.299-0.417,0.571   C57.451,61.427,57.664,61.603,57.906,61.603z"></path><path d="M40.426,61.332l0.02,0.003c0.032,0.006,0.063,0.009,0.094,0.009c0.233,0,0.436-0.168,0.481-0.407   c0.052-0.271-0.135-0.535-0.406-0.587l-0.106-0.02c-0.272-0.05-0.484,0.139-0.534,0.411C39.926,61.013,40.154,61.282,40.426,61.332   z"></path><path d="M59.506,60.327l-0.12,0.023c-0.271,0.052-0.449,0.314-0.396,0.585c0.046,0.239,0.255,0.405,0.49,0.405   c0.031,0,0.063-0.003,0.095-0.009l0.122-0.023c0.271-0.053,0.448-0.315,0.395-0.586C60.04,60.45,59.776,60.271,59.506,60.327z"></path><path d="M38.825,60.98l0.031,0.008c0.042,0.011,0.083,0.016,0.125,0.016c0.223,0,0.426-0.15,0.484-0.376   c0.068-0.268-0.093-0.54-0.36-0.608c0,0-0.121-0.031-0.122-0.031c-0.265-0.066-0.494,0.105-0.562,0.373   C38.354,60.629,38.559,60.912,38.825,60.98z"></path><path d="M61.034,59.984l-0.118,0.03c-0.268,0.068-0.429,0.341-0.36,0.608c0.058,0.226,0.261,0.376,0.484,0.376   c0.041,0,0.083-0.005,0.125-0.016l0.121-0.031c0.267-0.069,0.428-0.342,0.358-0.609C61.575,60.075,61.302,59.914,61.034,59.984z"></path><path d="M37.16,60.475l0.126,0.046c0.055,0.019,0.11,0.028,0.165,0.028c0.207,0,0.4-0.129,0.472-0.335   c0.091-0.261-0.046-0.546-0.307-0.637l-0.104-0.037c-0.259-0.099-0.547,0.033-0.644,0.292   C36.771,60.089,36.901,60.378,37.16,60.475z"></path><path d="M62.51,59.531l-0.106,0.039c-0.261,0.091-0.398,0.376-0.307,0.637c0.072,0.206,0.266,0.335,0.472,0.335   c0.055,0,0.11-0.009,0.165-0.028l0.125-0.045c0.259-0.096,0.391-0.384,0.294-0.643C63.057,59.566,62.77,59.435,62.51,59.531z"></path><path d="M50.073,62.905H49.95c-0.276,0-0.475,0.224-0.475,0.5s0.248,0.5,0.524,0.5h0.074c0.276,0,0.5-0.224,0.5-0.5   S50.35,62.905,50.073,62.905z"></path><path d="M48.489,62.887l-0.123-0.003c-0.283,0.002-0.505,0.212-0.512,0.488c-0.006,0.276,0.212,0.505,0.488,0.512l0.123,0.003   c0.004,0,0.008,0,0.012,0c0.271,0,0.493-0.216,0.5-0.488C48.983,63.123,48.765,62.894,48.489,62.887z"></path><path d="M51.657,62.883l-0.123,0.003c-0.276,0.007-0.494,0.236-0.488,0.512c0.007,0.272,0.229,0.488,0.5,0.488   c0.004,0,0.008,0,0.012,0l0.122-0.003c0.276-0.007,0.495-0.236,0.488-0.512C52.162,63.096,51.927,62.882,51.657,62.883z"></path><path d="M46.906,62.83l-0.123-0.006c-0.257-0.004-0.509,0.2-0.523,0.476c-0.013,0.276,0.2,0.51,0.476,0.523l0.123,0.006   c0.008,0,0.016,0,0.024,0c0.265,0,0.486-0.208,0.499-0.476C47.395,63.077,47.182,62.843,46.906,62.83z"></path><path d="M53.24,62.823l-0.129,0.007c-0.275,0.017-0.485,0.253-0.469,0.529c0.016,0.265,0.236,0.47,0.499,0.47   c0.01,0,0.021,0,0.031-0.001l0.116-0.006c0.276-0.013,0.489-0.248,0.476-0.523C53.75,63.022,53.511,62.807,53.24,62.823z"></path><path d="M45.325,62.73l-0.122-0.009c-0.271-0.014-0.485,0.189-0.505,0.463c-0.021,0.275,0.214,0.517,0.489,0.538   c0,0,0.066,0.005,0.067,0.005c0.012,0.001,0.024,0.001,0.036,0.001c0.26,0,0.479-0.201,0.498-0.464   C45.808,62.989,45.6,62.75,45.325,62.73z"></path><path d="M54.814,62.72l-0.116,0.009c-0.275,0.02-0.482,0.259-0.462,0.535c0.019,0.263,0.238,0.464,0.498,0.464   c0.012,0,0.024,0,0.037-0.001l0.128-0.01c0.275-0.023,0.479-0.265,0.456-0.54C55.331,62.901,55.085,62.7,54.814,62.72z"></path><path d="M43.752,62.586l-0.122-0.013c-0.273-0.029-0.521,0.168-0.551,0.443c-0.03,0.274,0.168,0.521,0.443,0.551l0.123,0.013   c0.018,0.002,0.036,0.003,0.054,0.003c0.252,0,0.469-0.19,0.497-0.447C44.226,62.862,44.027,62.615,43.752,62.586z"></path><path d="M56.392,62.57l-0.127,0.014c-0.274,0.033-0.47,0.281-0.438,0.556c0.03,0.254,0.246,0.441,0.496,0.441   c0.02,0,0.04-0.001,0.06-0.003l0.117-0.013c0.275-0.03,0.473-0.276,0.443-0.551C56.913,62.738,56.662,62.538,56.392,62.57z"></path><path d="M42.187,62.39l-0.122-0.018c-0.279-0.046-0.528,0.149-0.566,0.423c-0.04,0.273,0.15,0.527,0.423,0.566l0.122,0.018   c0.024,0.004,0.048,0.005,0.072,0.005c0.245,0,0.458-0.179,0.494-0.428C42.65,62.683,42.46,62.429,42.187,62.39z"></path><path d="M57.957,62.369l-0.127,0.019c-0.273,0.043-0.459,0.299-0.417,0.571c0.039,0.247,0.251,0.423,0.494,0.423   c0.025,0,0.052-0.002,0.078-0.006l0.116-0.018c0.273-0.039,0.462-0.293,0.423-0.566C58.484,62.519,58.236,62.321,57.957,62.369z"></path><path d="M40.616,62.129l-0.106-0.02c-0.273-0.051-0.484,0.139-0.534,0.411c-0.05,0.272,0.178,0.542,0.45,0.591l0.02,0.003   c0.032,0.006,0.063,0.009,0.094,0.009c0.233,0,0.436-0.168,0.481-0.407C41.074,62.445,40.887,62.181,40.616,62.129z"></path><path d="M59.506,62.105l-0.12,0.023c-0.271,0.052-0.449,0.314-0.396,0.585c0.046,0.239,0.255,0.405,0.49,0.405   c0.031,0,0.063-0.003,0.095-0.009l0.122-0.023c0.271-0.053,0.448-0.315,0.395-0.586S59.776,62.052,59.506,62.105z"></path><path d="M39.105,61.799c-0.001,0-0.121-0.031-0.122-0.031c-0.266-0.069-0.494,0.105-0.562,0.373   c-0.067,0.267,0.138,0.55,0.404,0.619l0.031,0.008c0.042,0.011,0.083,0.016,0.125,0.016c0.223,0,0.426-0.15,0.484-0.376   C39.534,62.14,39.373,61.867,39.105,61.799z"></path><path d="M61.034,61.763l-0.118,0.03c-0.268,0.068-0.429,0.341-0.36,0.608c0.058,0.226,0.261,0.376,0.484,0.376   c0.041,0,0.083-0.005,0.125-0.016l0.121-0.031c0.267-0.069,0.428-0.342,0.358-0.609C61.575,61.854,61.302,61.691,61.034,61.763z"></path><path d="M37.617,61.355l-0.104-0.037c-0.258-0.098-0.547,0.033-0.644,0.292c-0.098,0.258,0.033,0.547,0.292,0.644l0.126,0.046   c0.055,0.019,0.11,0.028,0.165,0.028c0.207,0,0.4-0.129,0.472-0.335C38.015,61.732,37.878,61.447,37.617,61.355z"></path><path d="M62.568,62.32c0.055,0,0.11-0.009,0.165-0.028l0.125-0.045c0.259-0.096,0.391-0.384,0.294-0.643   c-0.097-0.258-0.383-0.391-0.643-0.294l-0.106,0.039c-0.261,0.091-0.398,0.376-0.307,0.637   C62.168,62.191,62.362,62.32,62.568,62.32z"></path><path d="M50,65.684h0.073c0.276,0,0.5-0.224,0.5-0.5s-0.224-0.5-0.5-0.5H49.95c-0.276,0-0.475,0.224-0.475,0.5   S49.723,65.684,50,65.684z"></path><path d="M48.342,65.663l0.123,0.003c0.004,0,0.008,0,0.012,0c0.271,0,0.493-0.216,0.5-0.488c0.006-0.276-0.212-0.505-0.488-0.512   l-0.123-0.003c-0.283-0.024-0.505,0.212-0.512,0.488C47.847,65.427,48.065,65.656,48.342,65.663z"></path><path d="M51.545,65.665c0.004,0,0.008,0,0.013,0l0.122-0.003c0.276-0.007,0.495-0.236,0.488-0.512   c-0.007-0.276-0.241-0.516-0.512-0.488l-0.123,0.003c-0.276,0.007-0.494,0.236-0.488,0.512   C51.053,65.449,51.275,65.665,51.545,65.665z"></path><path d="M46.735,65.602l0.123,0.006c0.008,0,0.016,0,0.024,0c0.265,0,0.486-0.208,0.499-0.476c0.013-0.276-0.2-0.51-0.476-0.523   l-0.123-0.006c-0.257-0.014-0.509,0.2-0.523,0.476C46.246,65.354,46.459,65.588,46.735,65.602z"></path><path d="M53.14,65.607c0.01,0,0.021,0,0.031-0.001l0.116-0.006c0.276-0.013,0.489-0.248,0.476-0.523s-0.252-0.5-0.523-0.476   l-0.129,0.007c-0.275,0.017-0.485,0.253-0.469,0.529C52.658,65.403,52.878,65.607,53.14,65.607z"></path><path d="M45.186,65.501c0.001,0,0.066,0.005,0.067,0.005c0.012,0.001,0.024,0.001,0.036,0.001c0.26,0,0.479-0.201,0.498-0.464   c0.02-0.275-0.188-0.515-0.463-0.534L45.202,64.5c-0.271-0.013-0.485,0.189-0.505,0.463C44.676,65.238,44.911,65.48,45.186,65.501z   "></path><path d="M54.814,64.499l-0.116,0.009c-0.275,0.02-0.482,0.259-0.462,0.535c0.019,0.263,0.238,0.464,0.498,0.464   c0.012,0,0.024,0,0.037-0.001l0.128-0.01c0.275-0.023,0.479-0.265,0.456-0.54C55.331,64.68,55.085,64.479,54.814,64.499z"></path><path d="M43.523,65.345l0.123,0.013c0.018,0.002,0.036,0.003,0.054,0.003c0.252,0,0.469-0.19,0.497-0.447   c0.029-0.274-0.169-0.521-0.444-0.55l-0.122-0.013c-0.273-0.034-0.521,0.168-0.551,0.443C43.05,65.069,43.248,65.315,43.523,65.345   z"></path><path d="M56.322,65.359c0.02,0,0.04-0.001,0.06-0.003l0.117-0.013c0.275-0.03,0.473-0.276,0.443-0.551   c-0.03-0.275-0.28-0.474-0.551-0.443l-0.127,0.014c-0.274,0.033-0.47,0.281-0.438,0.556C55.856,65.173,56.072,65.359,56.322,65.359   z"></path><path d="M41.922,65.14l0.122,0.018c0.024,0.004,0.048,0.005,0.072,0.005c0.245,0,0.458-0.179,0.494-0.428   c0.04-0.273-0.15-0.527-0.423-0.566l-0.122-0.018c-0.279-0.049-0.528,0.149-0.566,0.423C41.459,64.847,41.649,65.101,41.922,65.14z   "></path><path d="M57.906,65.16c0.025,0,0.052-0.002,0.078-0.006l0.116-0.018c0.273-0.039,0.462-0.293,0.423-0.566   c-0.039-0.273-0.287-0.468-0.566-0.423l-0.127,0.019c-0.273,0.043-0.459,0.299-0.417,0.571   C57.451,64.984,57.664,65.16,57.906,65.16z"></path><path d="M40.426,64.89l0.02,0.003c0.032,0.006,0.063,0.009,0.094,0.009c0.233,0,0.436-0.168,0.481-0.407   c0.052-0.271-0.135-0.535-0.406-0.587l-0.106-0.02c-0.272-0.048-0.484,0.14-0.534,0.411C39.926,64.57,40.154,64.84,40.426,64.89z"></path><path d="M59.506,63.884l-0.12,0.023c-0.271,0.052-0.449,0.314-0.396,0.585c0.046,0.239,0.255,0.405,0.49,0.405   c0.031,0,0.063-0.003,0.095-0.009l0.122-0.023c0.271-0.053,0.448-0.315,0.395-0.586C60.04,64.008,59.776,63.829,59.506,63.884z"></path><path d="M38.825,64.538l0.031,0.008c0.042,0.011,0.083,0.016,0.125,0.016c0.223,0,0.426-0.15,0.484-0.376   c0.068-0.268-0.093-0.54-0.36-0.608c0,0-0.121-0.031-0.122-0.031c-0.265-0.066-0.494,0.105-0.562,0.373   C38.354,64.187,38.559,64.469,38.825,64.538z"></path><path d="M61.034,63.542l-0.118,0.03c-0.268,0.068-0.429,0.341-0.36,0.608c0.058,0.226,0.261,0.376,0.484,0.376   c0.041,0,0.083-0.005,0.125-0.016l0.121-0.031c0.267-0.069,0.428-0.342,0.358-0.609C61.575,63.633,61.302,63.469,61.034,63.542z"></path><path d="M37.16,64.033l0.126,0.046c0.055,0.019,0.11,0.028,0.165,0.028c0.207,0,0.4-0.129,0.472-0.335   c0.091-0.261-0.046-0.546-0.307-0.637l-0.104-0.037c-0.259-0.097-0.547,0.033-0.644,0.292   C36.771,63.647,36.901,63.936,37.16,64.033z"></path><path d="M62.51,63.088l-0.106,0.039c-0.261,0.091-0.398,0.376-0.307,0.637c0.072,0.206,0.266,0.335,0.472,0.335   c0.055,0,0.11-0.009,0.165-0.028l0.125-0.045c0.259-0.096,0.391-0.384,0.294-0.643C63.057,63.125,62.77,62.994,62.51,63.088z"></path><path d="M50,67.463h0.073c0.276,0,0.5-0.224,0.5-0.5s-0.224-0.5-0.5-0.5H49.95c-0.276,0-0.475,0.224-0.475,0.5   S49.723,67.463,50,67.463z"></path><path d="M48.342,67.442l0.123,0.003c0.004,0,0.008,0,0.012,0c0.271,0,0.493-0.216,0.5-0.488c0.006-0.276-0.212-0.505-0.488-0.512   l-0.123-0.003c-0.283-0.017-0.505,0.212-0.512,0.488C47.847,67.207,48.065,67.436,48.342,67.442z"></path><path d="M51.545,67.444c0.004,0,0.008,0,0.013,0l0.122-0.003c0.276-0.007,0.495-0.236,0.488-0.512   c-0.007-0.276-0.241-0.508-0.512-0.488l-0.123,0.003c-0.276,0.007-0.494,0.236-0.488,0.512   C51.053,67.229,51.275,67.444,51.545,67.444z"></path><path d="M46.735,67.381l0.123,0.006c0.008,0,0.016,0,0.024,0c0.265,0,0.486-0.208,0.499-0.476c0.013-0.276-0.2-0.51-0.476-0.523   l-0.123-0.006c-0.257-0.008-0.509,0.2-0.523,0.476C46.246,67.133,46.459,67.368,46.735,67.381z"></path><path d="M53.14,67.387c0.01,0,0.021,0,0.031-0.001l0.116-0.006c0.276-0.013,0.489-0.248,0.476-0.523   c-0.013-0.276-0.252-0.495-0.523-0.476l-0.129,0.007c-0.275,0.017-0.485,0.253-0.469,0.529   C52.658,67.182,52.878,67.387,53.14,67.387z"></path><path d="M45.186,67.281c0.001,0,0.066,0.005,0.067,0.005c0.012,0.001,0.024,0.001,0.036,0.001c0.26,0,0.479-0.201,0.498-0.464   c0.02-0.275-0.188-0.515-0.463-0.534l-0.122-0.009c-0.271-0.013-0.485,0.189-0.505,0.463   C44.676,67.018,44.911,67.259,45.186,67.281z"></path><path d="M54.814,66.278l-0.116,0.009c-0.275,0.02-0.482,0.259-0.462,0.535c0.019,0.263,0.238,0.464,0.498,0.464   c0.012,0,0.024,0,0.037-0.001l0.128-0.01c0.275-0.023,0.479-0.265,0.456-0.54C55.331,66.459,55.085,66.257,54.814,66.278z"></path><path d="M43.523,67.125l0.123,0.013c0.018,0.002,0.036,0.003,0.054,0.003c0.252,0,0.469-0.19,0.497-0.447   c0.029-0.274-0.169-0.521-0.444-0.55L43.63,66.13c-0.273-0.032-0.521,0.168-0.551,0.443C43.05,66.848,43.248,67.095,43.523,67.125z   "></path><path d="M56.322,67.139c0.02,0,0.04-0.001,0.06-0.003l0.117-0.013c0.275-0.03,0.473-0.276,0.443-0.551   c-0.03-0.275-0.28-0.472-0.551-0.443l-0.127,0.014c-0.274,0.033-0.47,0.281-0.438,0.556C55.856,66.952,56.072,67.139,56.322,67.139   z"></path><path d="M41.922,66.919l0.122,0.018c0.024,0.004,0.048,0.005,0.072,0.005c0.245,0,0.458-0.179,0.494-0.428   c0.04-0.273-0.15-0.527-0.423-0.566l-0.122-0.018c-0.279-0.047-0.528,0.149-0.566,0.423C41.459,66.626,41.649,66.88,41.922,66.919z   "></path><path d="M57.906,66.939c0.025,0,0.052-0.002,0.078-0.006l0.116-0.018c0.273-0.039,0.462-0.293,0.423-0.566   c-0.039-0.273-0.287-0.471-0.566-0.423l-0.127,0.019c-0.273,0.043-0.459,0.299-0.417,0.571   C57.451,66.764,57.664,66.939,57.906,66.939z"></path><path d="M40.426,66.669l0.02,0.003c0.032,0.006,0.063,0.009,0.094,0.009c0.233,0,0.436-0.168,0.481-0.407   c0.052-0.271-0.135-0.535-0.406-0.587l-0.106-0.02c-0.272-0.049-0.484,0.139-0.534,0.411C39.926,66.35,40.154,66.619,40.426,66.669   z"></path><path d="M59.506,65.664l-0.12,0.023c-0.271,0.052-0.449,0.314-0.396,0.585c0.046,0.239,0.255,0.405,0.49,0.405   c0.031,0,0.063-0.003,0.095-0.009l0.122-0.023c0.271-0.053,0.448-0.315,0.395-0.586C60.04,65.787,59.776,65.61,59.506,65.664z"></path><path d="M38.825,66.317l0.031,0.008c0.042,0.011,0.083,0.016,0.125,0.016c0.223,0,0.426-0.15,0.484-0.376   c0.068-0.268-0.093-0.54-0.36-0.608c0,0-0.121-0.031-0.122-0.031c-0.265-0.068-0.494,0.106-0.562,0.373   C38.354,65.966,38.559,66.249,38.825,66.317z"></path><path d="M61.034,65.321l-0.118,0.03c-0.268,0.068-0.429,0.341-0.36,0.608c0.058,0.226,0.261,0.376,0.484,0.376   c0.041,0,0.083-0.005,0.125-0.016l0.121-0.031c0.267-0.069,0.428-0.342,0.358-0.609C61.575,65.413,61.302,65.249,61.034,65.321z"></path><path d="M37.16,65.812l0.126,0.046c0.055,0.019,0.11,0.028,0.165,0.028c0.207,0,0.4-0.129,0.472-0.335   c0.091-0.261-0.046-0.546-0.307-0.637l-0.104-0.037c-0.259-0.099-0.547,0.033-0.644,0.292   C36.771,65.426,36.901,65.715,37.16,65.812z"></path><path d="M62.51,64.868l-0.106,0.039c-0.261,0.091-0.398,0.376-0.307,0.637c0.072,0.206,0.266,0.335,0.472,0.335   c0.055,0,0.11-0.009,0.165-0.028l0.125-0.045c0.259-0.096,0.391-0.384,0.294-0.643C63.057,64.904,62.77,64.771,62.51,64.868z"></path><path d="M50,69.241h0.073c0.276,0,0.5-0.224,0.5-0.5s-0.224-0.5-0.5-0.5H49.95c-0.276,0-0.475,0.224-0.475,0.5   S49.723,69.241,50,69.241z"></path><path d="M48.342,69.221l0.123,0.003c0.004,0,0.008,0,0.012,0c0.271,0,0.493-0.216,0.5-0.488c0.006-0.276-0.212-0.505-0.488-0.512   l-0.123-0.003c-0.283-0.008-0.505,0.212-0.512,0.488C47.847,68.985,48.065,69.214,48.342,69.221z"></path><path d="M51.545,69.223c0.004,0,0.008,0,0.013,0l0.122-0.003c0.276-0.007,0.495-0.236,0.488-0.512   c-0.007-0.276-0.241-0.5-0.512-0.488l-0.123,0.003c-0.276,0.007-0.494,0.236-0.488,0.512   C51.053,69.007,51.275,69.223,51.545,69.223z"></path><path d="M46.735,69.159l0.123,0.006c0.008,0,0.016,0,0.024,0c0.265,0,0.486-0.208,0.499-0.476c0.013-0.276-0.2-0.51-0.476-0.523   l-0.123-0.006c-0.257-0.017-0.509,0.2-0.523,0.476C46.246,68.912,46.459,69.146,46.735,69.159z"></path><path d="M53.14,69.165c0.01,0,0.021,0,0.031-0.001l0.116-0.006c0.276-0.013,0.489-0.248,0.476-0.523s-0.252-0.503-0.523-0.476   l-0.129,0.007c-0.275,0.017-0.485,0.253-0.469,0.529C52.658,68.96,52.878,69.165,53.14,69.165z"></path><path d="M45.186,69.059c0.001,0,0.066,0.005,0.067,0.005c0.012,0.001,0.024,0.001,0.036,0.001c0.26,0,0.479-0.201,0.498-0.464   c0.02-0.275-0.188-0.515-0.463-0.534l-0.122-0.009c-0.271-0.013-0.485,0.188-0.505,0.463S44.911,69.038,45.186,69.059z"></path><path d="M54.814,68.057l-0.116,0.009c-0.275,0.02-0.482,0.259-0.462,0.535c0.019,0.263,0.238,0.464,0.498,0.464   c0.012,0,0.024,0,0.037-0.001l0.128-0.01c0.275-0.023,0.479-0.265,0.456-0.54C55.331,68.238,55.085,68.036,54.814,68.057z"></path><path d="M43.523,68.903l0.123,0.013c0.018,0.002,0.036,0.003,0.054,0.003c0.252,0,0.469-0.19,0.497-0.447   c0.029-0.274-0.169-0.521-0.444-0.55l-0.122-0.013c-0.273-0.03-0.521,0.168-0.551,0.443C43.05,68.626,43.248,68.873,43.523,68.903z   "></path><path d="M56.322,68.917c0.02,0,0.04-0.001,0.06-0.003l0.117-0.013c0.275-0.03,0.473-0.276,0.443-0.551s-0.28-0.478-0.551-0.443   l-0.127,0.014c-0.274,0.033-0.47,0.281-0.438,0.556C55.856,68.73,56.072,68.917,56.322,68.917z"></path><path d="M41.922,68.698l0.122,0.018c0.024,0.004,0.048,0.005,0.072,0.005c0.245,0,0.458-0.179,0.494-0.428   c0.04-0.273-0.15-0.527-0.423-0.566l-0.122-0.018c-0.279-0.044-0.528,0.149-0.566,0.423C41.459,68.405,41.649,68.659,41.922,68.698   z"></path><path d="M57.906,68.718c0.025,0,0.052-0.002,0.078-0.006l0.116-0.018c0.273-0.039,0.462-0.293,0.423-0.566   c-0.039-0.273-0.287-0.468-0.566-0.423l-0.127,0.019c-0.273,0.043-0.459,0.299-0.417,0.571   C57.451,68.542,57.664,68.718,57.906,68.718z"></path><path d="M40.426,68.447l0.02,0.003c0.032,0.006,0.063,0.009,0.094,0.009c0.233,0,0.436-0.168,0.481-0.407   c0.052-0.271-0.135-0.535-0.406-0.587l-0.106-0.02c-0.272-0.05-0.484,0.139-0.534,0.411C39.926,68.128,40.154,68.397,40.426,68.447   z"></path><path d="M59.506,67.442l-0.12,0.023c-0.271,0.052-0.449,0.314-0.396,0.585c0.046,0.239,0.255,0.405,0.49,0.405   c0.031,0,0.063-0.003,0.095-0.009l0.122-0.023c0.271-0.053,0.448-0.315,0.395-0.586C60.04,67.565,59.776,67.387,59.506,67.442z"></path><path d="M38.825,68.096l0.031,0.008c0.042,0.011,0.083,0.016,0.125,0.016c0.223,0,0.426-0.15,0.484-0.376   c0.068-0.268-0.093-0.54-0.36-0.608c0,0-0.121-0.031-0.122-0.031c-0.265-0.066-0.494,0.105-0.562,0.373   C38.354,67.744,38.559,68.027,38.825,68.096z"></path><path d="M61.034,67.099l-0.118,0.03c-0.268,0.068-0.429,0.341-0.36,0.608c0.058,0.226,0.261,0.376,0.484,0.376   c0.041,0,0.083-0.005,0.125-0.016l0.121-0.031c0.267-0.069,0.428-0.342,0.358-0.609C61.575,67.19,61.302,67.027,61.034,67.099z"></path><path d="M37.16,67.59l0.126,0.046c0.055,0.019,0.11,0.028,0.165,0.028c0.207,0,0.4-0.129,0.472-0.335   c0.091-0.261-0.046-0.546-0.307-0.637l-0.104-0.037c-0.259-0.098-0.547,0.033-0.644,0.292C36.771,67.205,36.901,67.493,37.16,67.59   z"></path><path d="M62.51,66.646l-0.106,0.039c-0.261,0.091-0.398,0.376-0.307,0.637c0.072,0.206,0.266,0.335,0.472,0.335   c0.055,0,0.11-0.009,0.165-0.028l0.125-0.045c0.259-0.096,0.391-0.384,0.294-0.643C63.057,66.682,62.77,66.55,62.51,66.646z"></path><path d="M50,71.021h0.073c0.276,0,0.5-0.224,0.5-0.5s-0.224-0.5-0.5-0.5H49.95c-0.276,0-0.475,0.224-0.475,0.5   S49.723,71.021,50,71.021z"></path><path d="M48.342,71l0.123,0.003c0.004,0,0.008,0,0.012,0c0.271,0,0.493-0.216,0.5-0.488c0.006-0.276-0.212-0.505-0.488-0.512   L48.365,70c-0.283-0.001-0.505,0.212-0.512,0.488C47.847,70.764,48.065,70.993,48.342,71z"></path><path d="M51.545,71.002c0.004,0,0.008,0,0.013,0l0.122-0.003c0.276-0.007,0.495-0.236,0.488-0.512   c-0.007-0.276-0.241-0.492-0.512-0.488l-0.123,0.003c-0.276,0.007-0.494,0.236-0.488,0.512   C51.053,70.786,51.275,71.002,51.545,71.002z"></path><path d="M46.735,70.938l0.123,0.006c0.008,0,0.016,0,0.024,0c0.265,0,0.486-0.208,0.499-0.476c0.013-0.276-0.2-0.51-0.476-0.523   l-0.123-0.006c-0.257-0.011-0.509,0.2-0.523,0.476C46.246,70.691,46.459,70.925,46.735,70.938z"></path><path d="M53.14,70.944c0.01,0,0.021,0,0.031-0.001l0.116-0.006c0.276-0.013,0.489-0.248,0.476-0.523   c-0.013-0.276-0.252-0.498-0.523-0.476l-0.129,0.007c-0.275,0.017-0.485,0.253-0.469,0.529   C52.658,70.74,52.878,70.944,53.14,70.944z"></path><path d="M45.186,70.838c0.001,0,0.066,0.005,0.067,0.005c0.012,0.001,0.024,0.001,0.036,0.001c0.26,0,0.479-0.201,0.498-0.464   c0.02-0.275-0.188-0.515-0.463-0.534l-0.122-0.009c-0.271-0.013-0.485,0.188-0.505,0.463S44.911,70.817,45.186,70.838z"></path><path d="M54.814,69.836l-0.116,0.009c-0.275,0.02-0.482,0.259-0.462,0.535c0.019,0.263,0.238,0.464,0.498,0.464   c0.012,0,0.024,0,0.037-0.001l0.128-0.01c0.275-0.023,0.479-0.265,0.456-0.54C55.331,70.017,55.085,69.815,54.814,69.836z"></path><path d="M43.523,70.682l0.123,0.013c0.018,0.002,0.036,0.003,0.054,0.003c0.252,0,0.469-0.19,0.497-0.447   c0.029-0.274-0.169-0.521-0.444-0.55l-0.122-0.013c-0.273-0.029-0.521,0.168-0.551,0.443C43.05,70.406,43.248,70.652,43.523,70.682   z"></path><path d="M56.322,70.696c0.02,0,0.04-0.001,0.06-0.003l0.117-0.013c0.275-0.03,0.473-0.276,0.443-0.551   c-0.03-0.275-0.28-0.476-0.551-0.443L56.264,69.7c-0.274,0.033-0.47,0.281-0.438,0.556C55.856,70.51,56.072,70.696,56.322,70.696z"></path><path d="M41.922,70.477l0.122,0.018c0.024,0.004,0.048,0.005,0.072,0.005c0.245,0,0.458-0.179,0.494-0.428   c0.04-0.273-0.15-0.527-0.423-0.566l-0.122-0.018c-0.279-0.048-0.528,0.149-0.566,0.423C41.459,70.184,41.649,70.438,41.922,70.477   z"></path><path d="M57.906,70.497c0.025,0,0.052-0.002,0.078-0.006l0.116-0.018c0.273-0.039,0.462-0.293,0.423-0.566   c-0.039-0.273-0.287-0.471-0.566-0.423l-0.127,0.019c-0.273,0.043-0.459,0.299-0.417,0.571   C57.451,70.321,57.664,70.497,57.906,70.497z"></path><path d="M40.426,70.227l0.02,0.003c0.032,0.006,0.063,0.009,0.094,0.009c0.233,0,0.436-0.168,0.481-0.407   c0.052-0.271-0.135-0.535-0.406-0.587l-0.106-0.02c-0.272-0.047-0.484,0.139-0.534,0.411   C39.926,69.907,40.154,70.177,40.426,70.227z"></path><path d="M59.506,69.221l-0.12,0.023c-0.271,0.052-0.449,0.314-0.396,0.585c0.046,0.239,0.255,0.405,0.49,0.405   c0.031,0,0.063-0.003,0.095-0.009l0.122-0.023c0.271-0.053,0.448-0.315,0.395-0.586S59.776,69.168,59.506,69.221z"></path><path d="M38.825,69.875l0.031,0.008c0.042,0.011,0.083,0.016,0.125,0.016c0.223,0,0.426-0.15,0.484-0.376   c0.068-0.268-0.093-0.54-0.36-0.608c0,0-0.121-0.031-0.122-0.031c-0.265-0.068-0.494,0.106-0.562,0.373   C38.354,69.523,38.559,69.806,38.825,69.875z"></path><path d="M61.034,68.878l-0.118,0.03c-0.268,0.068-0.429,0.341-0.36,0.608c0.058,0.226,0.261,0.376,0.484,0.376   c0.041,0,0.083-0.005,0.125-0.016l0.121-0.031c0.267-0.069,0.428-0.342,0.358-0.609C61.575,68.969,61.302,68.807,61.034,68.878z"></path><path d="M37.16,69.37l0.126,0.046c0.055,0.019,0.11,0.028,0.165,0.028c0.207,0,0.4-0.129,0.472-0.335   c0.091-0.261-0.046-0.546-0.307-0.637l-0.104-0.037c-0.259-0.098-0.547,0.033-0.644,0.292C36.771,68.984,36.901,69.272,37.16,69.37   z"></path><path d="M62.51,68.425l-0.106,0.039c-0.261,0.091-0.398,0.376-0.307,0.637c0.072,0.206,0.266,0.335,0.472,0.335   c0.055,0,0.11-0.009,0.165-0.028l0.125-0.045c0.259-0.096,0.391-0.384,0.294-0.643C63.057,68.461,62.77,68.33,62.51,68.425z"></path><path d="M50.073,71.799H49.95c-0.276,0-0.475,0.224-0.475,0.5s0.248,0.5,0.524,0.5h0.074c0.276,0,0.5-0.224,0.5-0.5   S50.35,71.799,50.073,71.799z"></path><path d="M48.489,71.781l-0.123-0.003c-0.283,0.008-0.505,0.212-0.512,0.488c-0.006,0.276,0.212,0.505,0.488,0.512l0.123,0.003   c0.004,0,0.008,0,0.012,0c0.271,0,0.493-0.216,0.5-0.488C48.983,72.017,48.765,71.788,48.489,71.781z"></path><path d="M51.657,71.777l-0.123,0.003c-0.276,0.007-0.494,0.236-0.488,0.512c0.007,0.272,0.229,0.488,0.5,0.488   c0.004,0,0.008,0,0.013,0l0.122-0.003c0.276-0.007,0.495-0.236,0.488-0.512C52.162,71.99,51.927,71.782,51.657,71.777z"></path><path d="M46.906,71.724l-0.123-0.006c-0.257-0.003-0.509,0.2-0.523,0.476c-0.013,0.276,0.2,0.51,0.476,0.523l0.123,0.006   c0.008,0,0.016,0,0.024,0c0.265,0,0.486-0.208,0.499-0.476C47.395,71.971,47.182,71.737,46.906,71.724z"></path><path d="M53.24,71.717l-0.129,0.007c-0.275,0.017-0.485,0.253-0.469,0.529c0.016,0.265,0.236,0.47,0.499,0.47   c0.01,0,0.021,0,0.031-0.001l0.116-0.006c0.276-0.013,0.489-0.248,0.476-0.523S53.511,71.702,53.24,71.717z"></path><path d="M45.325,71.625l-0.122-0.009c-0.271-0.012-0.485,0.188-0.505,0.463s0.214,0.517,0.489,0.538c0,0,0.066,0.005,0.067,0.005   c0.012,0.001,0.024,0.001,0.036,0.001c0.26,0,0.479-0.201,0.498-0.464C45.808,71.883,45.6,71.644,45.325,71.625z"></path><path d="M54.814,71.614l-0.116,0.009c-0.275,0.02-0.482,0.259-0.462,0.535c0.019,0.263,0.238,0.464,0.498,0.464   c0.012,0,0.024,0,0.037-0.001l0.128-0.01c0.275-0.023,0.479-0.265,0.456-0.54C55.331,71.795,55.085,71.594,54.814,71.614z"></path><path d="M43.752,71.48l-0.122-0.013c-0.273-0.034-0.521,0.168-0.551,0.443c-0.03,0.274,0.168,0.521,0.443,0.551l0.123,0.013   c0.018,0.002,0.036,0.003,0.054,0.003c0.252,0,0.469-0.19,0.497-0.447C44.226,71.756,44.027,71.509,43.752,71.48z"></path><path d="M56.392,71.464l-0.127,0.014c-0.274,0.033-0.47,0.281-0.438,0.556c0.03,0.254,0.246,0.441,0.496,0.441   c0.02,0,0.04-0.001,0.06-0.003l0.117-0.013c0.275-0.03,0.473-0.276,0.443-0.551C56.913,71.632,56.662,71.434,56.392,71.464z"></path><path d="M42.187,71.284l-0.122-0.018c-0.279-0.045-0.528,0.149-0.566,0.423c-0.04,0.273,0.15,0.527,0.423,0.566l0.122,0.018   c0.024,0.004,0.048,0.005,0.072,0.005c0.245,0,0.458-0.179,0.494-0.428C42.65,71.577,42.46,71.323,42.187,71.284z"></path><path d="M57.957,71.263l-0.127,0.019c-0.273,0.043-0.459,0.299-0.417,0.571c0.039,0.247,0.251,0.423,0.494,0.423   c0.025,0,0.052-0.002,0.078-0.006l0.116-0.018c0.273-0.039,0.462-0.293,0.423-0.566C58.484,71.413,58.236,71.217,57.957,71.263z"></path><path d="M40.616,71.023l-0.106-0.02c-0.273-0.048-0.484,0.139-0.534,0.411c-0.05,0.272,0.178,0.542,0.45,0.591l0.02,0.003   c0.032,0.006,0.063,0.009,0.094,0.009c0.233,0,0.436-0.168,0.481-0.407C41.074,71.339,40.887,71.075,40.616,71.023z"></path><path d="M59.506,71l-0.12,0.023c-0.271,0.052-0.449,0.314-0.396,0.585c0.046,0.239,0.255,0.405,0.49,0.405   c0.031,0,0.063-0.003,0.095-0.009l0.122-0.023c0.271-0.053,0.448-0.315,0.395-0.586C60.04,71.123,59.776,70.945,59.506,71z"></path><path d="M39.105,70.693c-0.001,0-0.121-0.031-0.122-0.031c-0.266-0.066-0.494,0.105-0.562,0.373   c-0.067,0.267,0.138,0.55,0.404,0.619l0.031,0.008c0.042,0.011,0.083,0.016,0.125,0.016c0.223,0,0.426-0.15,0.484-0.376   C39.534,71.034,39.373,70.761,39.105,70.693z"></path><path d="M61.034,70.657l-0.118,0.03c-0.268,0.068-0.429,0.341-0.36,0.608c0.058,0.226,0.261,0.376,0.484,0.376   c0.041,0,0.083-0.005,0.125-0.016l0.121-0.031c0.267-0.069,0.428-0.342,0.358-0.609C61.575,70.748,61.302,70.584,61.034,70.657z"></path><path d="M37.617,70.25l-0.104-0.037c-0.258-0.099-0.547,0.034-0.644,0.292c-0.098,0.258,0.033,0.547,0.292,0.644l0.126,0.046   c0.055,0.019,0.11,0.028,0.165,0.028c0.207,0,0.4-0.129,0.472-0.335C38.015,70.626,37.878,70.341,37.617,70.25z"></path><path d="M62.568,71.214c0.055,0,0.11-0.009,0.165-0.028l0.125-0.045c0.259-0.096,0.391-0.384,0.294-0.643   c-0.097-0.259-0.383-0.39-0.643-0.294l-0.106,0.039c-0.261,0.091-0.398,0.376-0.307,0.637   C62.168,71.085,62.362,71.214,62.568,71.214z"></path><path d="M50,74.578h0.073c0.276,0,0.5-0.224,0.5-0.5s-0.224-0.5-0.5-0.5H49.95c-0.276,0-0.475,0.224-0.475,0.5   S49.723,74.578,50,74.578z"></path><path d="M48.342,74.558l0.123,0.003c0.004,0,0.008,0,0.012,0c0.271,0,0.493-0.216,0.5-0.488c0.006-0.276-0.212-0.505-0.488-0.512   l-0.123-0.003c-0.283-0.019-0.505,0.212-0.512,0.488C47.847,74.322,48.065,74.551,48.342,74.558z"></path><path d="M51.545,74.56c0.004,0,0.008,0,0.013,0l0.122-0.003c0.276-0.007,0.495-0.236,0.488-0.512   c-0.007-0.276-0.241-0.51-0.512-0.488l-0.123,0.003c-0.276,0.007-0.494,0.236-0.488,0.512C51.053,74.344,51.275,74.56,51.545,74.56   z"></path><path d="M46.735,74.496l0.123,0.006c0.008,0,0.016,0,0.024,0c0.265,0,0.486-0.208,0.499-0.476c0.013-0.276-0.2-0.51-0.476-0.523   l-0.123-0.006c-0.257-0.014-0.509,0.2-0.523,0.476C46.246,74.249,46.459,74.483,46.735,74.496z"></path><path d="M53.14,74.502c0.01,0,0.021,0,0.031-0.001l0.116-0.006c0.276-0.013,0.489-0.248,0.476-0.523s-0.252-0.5-0.523-0.476   l-0.129,0.007c-0.275,0.017-0.485,0.253-0.469,0.529C52.658,74.297,52.878,74.502,53.14,74.502z"></path><path d="M45.186,74.396c0.001,0,0.066,0.005,0.067,0.005c0.012,0.001,0.024,0.001,0.036,0.001c0.26,0,0.479-0.201,0.498-0.464   c0.02-0.275-0.188-0.515-0.463-0.534l-0.122-0.009c-0.271-0.012-0.485,0.189-0.505,0.463   C44.676,74.133,44.911,74.375,45.186,74.396z"></path><path d="M54.814,73.394l-0.116,0.009c-0.275,0.02-0.482,0.259-0.462,0.535c0.019,0.263,0.238,0.464,0.498,0.464   c0.012,0,0.024,0,0.037-0.001l0.128-0.01c0.275-0.023,0.479-0.265,0.456-0.54C55.331,73.575,55.085,73.372,54.814,73.394z"></path><path d="M43.523,74.24l0.123,0.013c0.018,0.002,0.036,0.003,0.054,0.003c0.252,0,0.469-0.19,0.497-0.447   c0.029-0.274-0.169-0.521-0.444-0.55l-0.122-0.013c-0.273-0.032-0.521,0.168-0.551,0.443C43.05,73.963,43.248,74.21,43.523,74.24z"></path><path d="M56.322,74.254c0.02,0,0.04-0.001,0.06-0.003l0.117-0.013c0.275-0.03,0.473-0.276,0.443-0.551   c-0.03-0.275-0.28-0.472-0.551-0.443l-0.127,0.014c-0.274,0.033-0.47,0.281-0.438,0.556C55.856,74.067,56.072,74.254,56.322,74.254   z"></path><path d="M41.922,74.035l0.122,0.018c0.024,0.004,0.048,0.005,0.072,0.005c0.245,0,0.458-0.179,0.494-0.428   c0.04-0.273-0.15-0.527-0.423-0.566l-0.122-0.018c-0.279-0.048-0.528,0.149-0.566,0.423C41.459,73.742,41.649,73.996,41.922,74.035   z"></path><path d="M57.906,74.055c0.025,0,0.052-0.002,0.078-0.006l0.116-0.018c0.273-0.039,0.462-0.293,0.423-0.566   c-0.039-0.273-0.287-0.472-0.566-0.423l-0.127,0.019c-0.273,0.043-0.459,0.299-0.417,0.571   C57.451,73.879,57.664,74.055,57.906,74.055z"></path><path d="M40.426,73.784l0.02,0.003c0.032,0.006,0.063,0.009,0.094,0.009c0.233,0,0.436-0.168,0.481-0.407   c0.052-0.271-0.135-0.535-0.406-0.587l-0.106-0.02c-0.272-0.05-0.484,0.139-0.534,0.411C39.926,73.465,40.154,73.734,40.426,73.784   z"></path><path d="M59.506,72.779l-0.12,0.023c-0.271,0.052-0.449,0.314-0.396,0.585c0.046,0.239,0.255,0.405,0.49,0.405   c0.031,0,0.063-0.003,0.095-0.009l0.122-0.023c0.271-0.053,0.448-0.315,0.395-0.586C60.04,72.902,59.776,72.726,59.506,72.779z"></path><path d="M38.825,73.433l0.031,0.008c0.042,0.011,0.083,0.016,0.125,0.016c0.223,0,0.426-0.15,0.484-0.376   c0.068-0.268-0.093-0.54-0.36-0.608c0,0-0.121-0.031-0.122-0.031c-0.265-0.068-0.494,0.106-0.562,0.373   C38.354,73.081,38.559,73.364,38.825,73.433z"></path><path d="M61.034,72.436l-0.118,0.03c-0.268,0.068-0.429,0.341-0.36,0.608c0.058,0.226,0.261,0.376,0.484,0.376   c0.041,0,0.083-0.005,0.125-0.016l0.121-0.031c0.267-0.069,0.428-0.342,0.358-0.609C61.575,72.527,61.302,72.365,61.034,72.436z"></path><path d="M37.16,72.927l0.126,0.046c0.055,0.019,0.11,0.028,0.165,0.028c0.207,0,0.4-0.129,0.472-0.335   c0.091-0.261-0.046-0.546-0.307-0.637l-0.104-0.037c-0.259-0.099-0.547,0.033-0.644,0.292C36.771,72.542,36.901,72.83,37.16,72.927   z"></path><path d="M62.51,71.983l-0.106,0.039c-0.261,0.091-0.398,0.376-0.307,0.637c0.072,0.206,0.266,0.335,0.472,0.335   c0.055,0,0.11-0.009,0.165-0.028l0.125-0.045c0.259-0.096,0.391-0.384,0.294-0.643C63.057,72.019,62.77,71.886,62.51,71.983z"></path><path d="M50,85.251h0.073c0.276,0,0.5-0.224,0.5-0.5s-0.224-0.5-0.5-0.5H49.95c-0.276,0-0.475,0.224-0.475,0.5   S49.723,85.251,50,85.251z"></path><path d="M48.342,85.231l0.123,0.003c0.004,0,0.008,0,0.012,0c0.271,0,0.493-0.216,0.5-0.488c0.006-0.276-0.212-0.505-0.488-0.512   l-0.123-0.003c-0.283-0.006-0.505,0.212-0.512,0.488C47.847,84.995,48.065,85.224,48.342,85.231z"></path><path d="M51.546,85.233c0.004,0,0.008,0,0.012,0l0.122-0.003c0.276-0.007,0.495-0.236,0.488-0.512   c-0.007-0.276-0.241-0.497-0.512-0.488l-0.123,0.003c-0.276,0.007-0.494,0.236-0.488,0.512   C51.053,85.017,51.275,85.233,51.546,85.233z"></path><path d="M46.735,85.169l0.123,0.006c0.008,0,0.016,0,0.024,0c0.265,0,0.486-0.208,0.499-0.476c0.013-0.276-0.2-0.51-0.476-0.523   l-0.123-0.006c-0.257-0.007-0.509,0.2-0.523,0.476C46.246,84.922,46.459,85.156,46.735,85.169z"></path><path d="M53.14,85.175c0.01,0,0.021,0,0.031-0.001l0.116-0.006c0.276-0.013,0.489-0.248,0.476-0.523   c-0.013-0.276-0.252-0.494-0.523-0.476l-0.129,0.007c-0.275,0.017-0.485,0.253-0.469,0.529   C52.658,84.971,52.878,85.175,53.14,85.175z"></path><path d="M45.186,85.069c0.001,0,0.066,0.005,0.067,0.005c0.012,0.001,0.024,0.001,0.036,0.001c0.26,0,0.479-0.201,0.498-0.464   c0.02-0.275-0.188-0.515-0.463-0.534l-0.122-0.009c-0.271-0.021-0.485,0.189-0.505,0.463   C44.676,84.806,44.911,85.048,45.186,85.069z"></path><path d="M54.814,84.067l-0.116,0.009c-0.275,0.02-0.482,0.259-0.462,0.535c0.019,0.263,0.238,0.464,0.498,0.464   c0.012,0,0.024,0,0.037-0.001l0.128-0.01c0.275-0.023,0.479-0.265,0.456-0.54C55.331,84.248,55.085,84.044,54.814,84.067z"></path><path d="M43.523,84.913l0.123,0.013c0.018,0.002,0.036,0.003,0.054,0.003c0.252,0,0.469-0.19,0.497-0.447   c0.029-0.274-0.169-0.521-0.444-0.55l-0.122-0.013c-0.273-0.029-0.521,0.168-0.551,0.443C43.05,84.637,43.248,84.883,43.523,84.913   z"></path><path d="M56.322,84.927c0.02,0,0.04-0.001,0.06-0.003l0.117-0.013c0.275-0.03,0.473-0.276,0.443-0.551   c-0.03-0.275-0.28-0.476-0.551-0.443l-0.127,0.014c-0.274,0.033-0.47,0.281-0.438,0.556C55.856,84.741,56.072,84.927,56.322,84.927   z"></path><path d="M41.922,84.708l0.122,0.018c0.024,0.004,0.048,0.005,0.072,0.005c0.245,0,0.458-0.179,0.494-0.428   c0.04-0.273-0.15-0.527-0.423-0.566l-0.122-0.018c-0.279-0.045-0.528,0.149-0.566,0.423C41.459,84.415,41.649,84.669,41.922,84.708   z"></path><path d="M57.906,84.728c0.025,0,0.052-0.002,0.078-0.006l0.116-0.018c0.273-0.039,0.462-0.293,0.423-0.566   c-0.039-0.273-0.287-0.467-0.566-0.423l-0.127,0.019c-0.273,0.043-0.459,0.299-0.417,0.571   C57.451,84.552,57.664,84.728,57.906,84.728z"></path><path d="M40.426,84.458l0.02,0.003c0.032,0.006,0.063,0.009,0.094,0.009c0.233,0,0.436-0.168,0.481-0.407   c0.052-0.271-0.135-0.535-0.406-0.587l-0.106-0.02c-0.272-0.049-0.484,0.139-0.534,0.411   C39.926,84.138,40.154,84.408,40.426,84.458z"></path><path d="M59.506,83.452l-0.12,0.023c-0.271,0.052-0.449,0.314-0.396,0.585c0.046,0.239,0.255,0.405,0.49,0.405   c0.031,0,0.063-0.003,0.095-0.009l0.122-0.023c0.271-0.053,0.448-0.315,0.395-0.586C60.04,83.576,59.776,83.399,59.506,83.452z"></path><path d="M38.825,84.106l0.031,0.008c0.042,0.011,0.083,0.016,0.125,0.016c0.223,0,0.426-0.15,0.484-0.376   c0.068-0.268-0.093-0.54-0.36-0.608c0,0-0.121-0.031-0.122-0.031c-0.265-0.068-0.494,0.106-0.562,0.373   C38.354,83.754,38.559,84.037,38.825,84.106z"></path><path d="M61.034,83.109l-0.118,0.03c-0.268,0.068-0.429,0.341-0.36,0.608c0.058,0.226,0.261,0.376,0.484,0.376   c0.041,0,0.083-0.005,0.125-0.016l0.121-0.031c0.267-0.069,0.428-0.342,0.358-0.609C61.575,83.201,61.302,83.04,61.034,83.109z"></path><path d="M37.16,83.601l0.126,0.046c0.055,0.019,0.11,0.028,0.165,0.028c0.207,0,0.4-0.129,0.472-0.335   c0.091-0.261-0.046-0.546-0.307-0.637l-0.104-0.037c-0.259-0.099-0.547,0.034-0.644,0.292   C36.771,83.215,36.901,83.503,37.16,83.601z"></path><path d="M62.51,82.656l-0.106,0.039c-0.261,0.091-0.398,0.376-0.307,0.637c0.072,0.206,0.266,0.335,0.472,0.335   c0.055,0,0.11-0.009,0.165-0.028l0.125-0.045c0.259-0.096,0.391-0.384,0.294-0.643C63.057,82.692,62.77,82.562,62.51,82.656z"></path><path d="M50.073,82.472H49.95c-0.276,0-0.475,0.224-0.475,0.5s0.248,0.5,0.524,0.5h0.074c0.276,0,0.5-0.224,0.5-0.5   S50.35,82.472,50.073,82.472z"></path><path d="M48.489,82.455l-0.123-0.003c-0.283-0.013-0.505,0.212-0.512,0.488c-0.006,0.276,0.212,0.505,0.488,0.512l0.123,0.003   c0.004,0,0.008,0,0.012,0c0.271,0,0.493-0.216,0.5-0.488C48.983,82.69,48.765,82.461,48.489,82.455z"></path><path d="M51.657,82.451l-0.123,0.003c-0.276,0.007-0.494,0.236-0.488,0.512c0.007,0.272,0.229,0.488,0.5,0.488   c0.004,0,0.008,0,0.012,0l0.122-0.003c0.276-0.007,0.495-0.236,0.488-0.512C52.162,82.663,51.927,82.435,51.657,82.451z"></path><path d="M46.906,82.397l-0.123-0.006c-0.257-0.013-0.509,0.2-0.523,0.476c-0.013,0.276,0.2,0.51,0.476,0.523l0.123,0.006   c0.008,0,0.016,0,0.024,0c0.265,0,0.486-0.208,0.499-0.476C47.395,82.645,47.182,82.41,46.906,82.397z"></path><path d="M53.24,82.39l-0.129,0.007c-0.275,0.017-0.485,0.253-0.469,0.529c0.016,0.265,0.236,0.47,0.499,0.47   c0.01,0,0.021,0,0.031-0.001l0.116-0.006c0.276-0.013,0.489-0.248,0.476-0.523S53.511,82.366,53.24,82.39z"></path><path d="M45.325,82.298l-0.122-0.009c-0.271-0.021-0.485,0.189-0.505,0.463c-0.021,0.275,0.214,0.517,0.489,0.538   c0,0,0.066,0.005,0.067,0.005c0.012,0.001,0.024,0.001,0.036,0.001c0.26,0,0.479-0.201,0.498-0.464   C45.808,82.557,45.6,82.317,45.325,82.298z"></path><path d="M54.814,82.288l-0.116,0.009c-0.275,0.02-0.482,0.259-0.462,0.535c0.019,0.263,0.238,0.464,0.498,0.464   c0.012,0,0.024,0,0.037-0.001l0.128-0.01c0.275-0.023,0.479-0.265,0.456-0.54C55.331,82.469,55.085,82.266,54.814,82.288z"></path><path d="M43.752,82.153l-0.122-0.013c-0.273-0.031-0.521,0.168-0.551,0.443c-0.03,0.274,0.168,0.521,0.443,0.551l0.123,0.013   c0.018,0.002,0.036,0.003,0.054,0.003c0.252,0,0.469-0.19,0.497-0.447C44.226,82.429,44.027,82.183,43.752,82.153z"></path><path d="M56.392,82.137l-0.127,0.014c-0.274,0.033-0.47,0.281-0.438,0.556c0.03,0.254,0.246,0.441,0.496,0.441   c0.02,0,0.04-0.001,0.06-0.003l0.117-0.013c0.275-0.03,0.473-0.276,0.443-0.551S56.662,82.103,56.392,82.137z"></path><path d="M42.187,81.957l-0.122-0.018c-0.279-0.047-0.528,0.149-0.566,0.423c-0.04,0.273,0.15,0.527,0.423,0.566l0.122,0.018   c0.024,0.004,0.048,0.005,0.072,0.005c0.245,0,0.458-0.179,0.494-0.428C42.65,82.25,42.46,81.996,42.187,81.957z"></path><path d="M57.957,81.936l-0.127,0.019c-0.273,0.043-0.459,0.299-0.417,0.571c0.039,0.247,0.251,0.423,0.494,0.423   c0.025,0,0.052-0.002,0.078-0.006l0.116-0.018c0.273-0.039,0.462-0.293,0.423-0.566C58.484,82.086,58.236,81.89,57.957,81.936z"></path><path d="M40.616,81.696l-0.106-0.02c-0.273-0.047-0.484,0.139-0.534,0.411c-0.05,0.272,0.178,0.542,0.45,0.591l0.02,0.003   c0.032,0.006,0.063,0.009,0.094,0.009c0.233,0,0.436-0.168,0.481-0.407C41.074,82.013,40.887,81.749,40.616,81.696z"></path><path d="M59.506,81.673l-0.12,0.023c-0.271,0.052-0.449,0.314-0.396,0.585c0.046,0.239,0.255,0.405,0.49,0.405   c0.031,0,0.063-0.003,0.095-0.009l0.122-0.023c0.271-0.053,0.448-0.315,0.395-0.586C60.04,81.796,59.776,81.618,59.506,81.673z"></path><path d="M39.105,81.366c-0.001,0-0.121-0.031-0.122-0.031c-0.266-0.066-0.494,0.105-0.562,0.373   c-0.067,0.267,0.138,0.55,0.404,0.619l0.031,0.008c0.042,0.011,0.083,0.016,0.125,0.016c0.223,0,0.426-0.15,0.484-0.376   C39.534,81.707,39.373,81.435,39.105,81.366z"></path><path d="M61.034,81.33l-0.118,0.03c-0.268,0.068-0.429,0.341-0.36,0.608c0.058,0.226,0.261,0.376,0.484,0.376   c0.041,0,0.083-0.005,0.125-0.016l0.121-0.031c0.267-0.069,0.428-0.342,0.358-0.609C61.575,81.421,61.302,81.259,61.034,81.33z"></path><path d="M37.617,80.923l-0.104-0.037c-0.258-0.099-0.547,0.033-0.644,0.292c-0.098,0.258,0.033,0.547,0.292,0.644l0.126,0.046   c0.055,0.019,0.11,0.028,0.165,0.028c0.207,0,0.4-0.129,0.472-0.335C38.015,81.299,37.878,81.014,37.617,80.923z"></path><path d="M62.568,81.888c0.055,0,0.11-0.009,0.165-0.028l0.125-0.045c0.259-0.096,0.391-0.384,0.294-0.643   c-0.097-0.259-0.383-0.39-0.643-0.294l-0.106,0.039c-0.261,0.091-0.398,0.376-0.307,0.637   C62.168,81.759,62.362,81.888,62.568,81.888z"></path><path d="M50.073,80.693H49.95c-0.276,0-0.475,0.224-0.475,0.5s0.248,0.5,0.524,0.5h0.074c0.276,0,0.5-0.224,0.5-0.5   S50.35,80.693,50.073,80.693z"></path><path d="M48.489,80.676l-0.123-0.003c-0.283-0.021-0.505,0.212-0.512,0.488c-0.006,0.276,0.212,0.505,0.488,0.512l0.123,0.003   c0.004,0,0.008,0,0.012,0c0.271,0,0.493-0.216,0.5-0.488C48.983,80.912,48.765,80.683,48.489,80.676z"></path><path d="M51.657,80.672l-0.123,0.003c-0.276,0.007-0.494,0.236-0.488,0.512c0.007,0.272,0.229,0.488,0.5,0.488   c0.004,0,0.008,0,0.013,0l0.122-0.003c0.276-0.007,0.495-0.236,0.488-0.512C52.162,80.884,51.927,80.647,51.657,80.672z"></path><path d="M46.906,80.618l-0.123-0.006c-0.257-0.003-0.509,0.2-0.523,0.476c-0.013,0.276,0.2,0.51,0.476,0.523l0.123,0.006   c0.008,0,0.016,0,0.024,0c0.265,0,0.486-0.208,0.499-0.476C47.395,80.866,47.182,80.631,46.906,80.618z"></path><path d="M53.24,80.611l-0.129,0.007c-0.275,0.017-0.485,0.253-0.469,0.529c0.016,0.265,0.236,0.47,0.499,0.47   c0.01,0,0.021,0,0.031-0.001l0.116-0.006c0.276-0.013,0.489-0.248,0.476-0.523S53.511,80.597,53.24,80.611z"></path><path d="M45.325,80.519l-0.122-0.009c-0.271-0.021-0.485,0.189-0.505,0.463c-0.021,0.275,0.214,0.517,0.489,0.538   c0,0,0.066,0.005,0.067,0.005c0.012,0.001,0.024,0.001,0.036,0.001c0.26,0,0.479-0.201,0.498-0.464   C45.808,80.778,45.6,80.539,45.325,80.519z"></path><path d="M54.814,80.509l-0.116,0.009c-0.275,0.02-0.482,0.259-0.462,0.535c0.019,0.263,0.238,0.464,0.498,0.464   c0.012,0,0.024,0,0.037-0.001l0.128-0.01c0.275-0.023,0.479-0.265,0.456-0.54C55.331,80.69,55.085,80.487,54.814,80.509z"></path><path d="M43.752,80.375l-0.122-0.013c-0.273-0.033-0.521,0.168-0.551,0.443c-0.03,0.274,0.168,0.521,0.443,0.551l0.123,0.013   c0.018,0.002,0.036,0.003,0.054,0.003c0.252,0,0.469-0.19,0.497-0.447C44.226,80.65,44.027,80.404,43.752,80.375z"></path><path d="M56.392,80.358l-0.127,0.014c-0.274,0.033-0.47,0.281-0.438,0.556c0.03,0.254,0.246,0.441,0.496,0.441   c0.02,0,0.04-0.001,0.06-0.003l0.117-0.013c0.275-0.03,0.473-0.276,0.443-0.551C56.913,80.527,56.662,80.33,56.392,80.358z"></path><path d="M42.187,80.178l-0.122-0.018c-0.279-0.044-0.528,0.149-0.566,0.423c-0.04,0.273,0.15,0.527,0.423,0.566l0.122,0.018   c0.024,0.004,0.048,0.005,0.072,0.005c0.245,0,0.458-0.179,0.494-0.428C42.65,80.471,42.46,80.217,42.187,80.178z"></path><path d="M57.957,80.157l-0.127,0.019c-0.273,0.043-0.459,0.299-0.417,0.571c0.039,0.247,0.251,0.423,0.494,0.423   c0.025,0,0.052-0.002,0.078-0.006l0.116-0.018c0.273-0.039,0.462-0.293,0.423-0.566C58.484,80.307,58.236,80.108,57.957,80.157z"></path><path d="M40.616,79.917l-0.106-0.02c-0.273-0.051-0.484,0.139-0.534,0.411c-0.05,0.272,0.178,0.542,0.45,0.591l0.02,0.003   c0.032,0.006,0.063,0.009,0.094,0.009c0.233,0,0.436-0.168,0.481-0.407C41.074,80.234,40.887,79.97,40.616,79.917z"></path><path d="M59.506,79.894l-0.12,0.023c-0.271,0.052-0.449,0.314-0.396,0.585c0.046,0.239,0.255,0.405,0.49,0.405   c0.031,0,0.063-0.003,0.095-0.009l0.122-0.023c0.271-0.053,0.448-0.315,0.395-0.586S59.776,79.841,59.506,79.894z"></path><path d="M39.105,79.587c-0.001,0-0.121-0.031-0.122-0.031c-0.266-0.068-0.494,0.106-0.562,0.373   c-0.067,0.267,0.138,0.55,0.404,0.619l0.031,0.008c0.042,0.011,0.083,0.016,0.125,0.016c0.223,0,0.426-0.15,0.484-0.376   C39.534,79.928,39.373,79.656,39.105,79.587z"></path><path d="M61.034,79.551l-0.118,0.03c-0.268,0.068-0.429,0.341-0.36,0.608c0.058,0.226,0.261,0.376,0.484,0.376   c0.041,0,0.083-0.005,0.125-0.016l0.121-0.031c0.267-0.069,0.428-0.342,0.358-0.609C61.575,79.643,61.302,79.481,61.034,79.551z"></path><path d="M37.617,79.144l-0.104-0.037c-0.258-0.098-0.547,0.033-0.644,0.292c-0.098,0.258,0.033,0.547,0.292,0.644l0.126,0.046   c0.055,0.019,0.11,0.028,0.165,0.028c0.207,0,0.4-0.129,0.472-0.335C38.015,79.521,37.878,79.235,37.617,79.144z"></path><path d="M62.568,80.109c0.055,0,0.11-0.009,0.165-0.028l0.125-0.045c0.259-0.096,0.391-0.384,0.294-0.643   c-0.097-0.258-0.383-0.389-0.643-0.294l-0.106,0.039c-0.261,0.091-0.398,0.376-0.307,0.637   C62.168,79.98,62.362,80.109,62.568,80.109z"></path><path d="M50,79.915h0.073c0.276,0,0.5-0.224,0.5-0.5s-0.224-0.5-0.5-0.5H49.95c-0.276,0-0.475,0.224-0.475,0.5   S49.723,79.915,50,79.915z"></path><path d="M48.342,79.894l0.123,0.003c0.004,0,0.008,0,0.012,0c0.271,0,0.493-0.216,0.5-0.488c0.006-0.276-0.212-0.505-0.488-0.512   l-0.123-0.003c-0.283,0.005-0.505,0.212-0.512,0.488C47.847,79.658,48.065,79.887,48.342,79.894z"></path><path d="M51.546,79.896c0.004,0,0.008,0,0.012,0l0.122-0.003c0.276-0.007,0.495-0.236,0.488-0.512   c-0.007-0.276-0.241-0.486-0.512-0.488l-0.123,0.003c-0.276,0.007-0.494,0.236-0.488,0.512   C51.053,79.68,51.275,79.896,51.546,79.896z"></path><path d="M46.735,79.833l0.123,0.006c0.008,0,0.016,0,0.024,0c0.265,0,0.486-0.208,0.499-0.476c0.013-0.276-0.2-0.51-0.476-0.523   l-0.123-0.006c-0.257-0.01-0.509,0.2-0.523,0.476C46.246,79.585,46.459,79.819,46.735,79.833z"></path><path d="M53.14,79.838c0.01,0,0.021,0,0.031-0.001l0.116-0.006c0.276-0.013,0.489-0.248,0.476-0.523   c-0.013-0.276-0.252-0.497-0.523-0.476l-0.129,0.007c-0.275,0.017-0.485,0.253-0.469,0.529   C52.658,79.634,52.878,79.838,53.14,79.838z"></path><path d="M45.186,79.732c0.001,0,0.066,0.005,0.067,0.005c0.012,0.001,0.024,0.001,0.036,0.001c0.26,0,0.479-0.201,0.498-0.464   c0.02-0.275-0.188-0.515-0.463-0.534l-0.122-0.009c-0.271-0.022-0.485,0.189-0.505,0.463   C44.676,79.469,44.911,79.711,45.186,79.732z"></path><path d="M54.814,78.73l-0.116,0.009c-0.275,0.02-0.482,0.259-0.462,0.535c0.019,0.263,0.238,0.464,0.498,0.464   c0.012,0,0.024,0,0.037-0.001l0.128-0.01c0.275-0.023,0.479-0.265,0.456-0.54C55.331,78.911,55.085,78.708,54.814,78.73z"></path><path d="M43.523,79.576l0.123,0.013c0.018,0.002,0.036,0.003,0.054,0.003c0.252,0,0.469-0.19,0.497-0.447   c0.029-0.274-0.169-0.521-0.444-0.55l-0.122-0.013c-0.273-0.034-0.521,0.168-0.551,0.443C43.05,79.3,43.248,79.546,43.523,79.576z"></path><path d="M56.322,79.59c0.02,0,0.04-0.001,0.06-0.003l0.117-0.013c0.275-0.03,0.473-0.276,0.443-0.551   c-0.03-0.275-0.28-0.474-0.551-0.443l-0.127,0.014c-0.274,0.033-0.47,0.281-0.438,0.556C55.856,79.404,56.072,79.59,56.322,79.59z"></path><path d="M41.922,79.371l0.122,0.018c0.024,0.004,0.048,0.005,0.072,0.005c0.245,0,0.458-0.179,0.494-0.428   c0.04-0.273-0.15-0.527-0.423-0.566l-0.122-0.018c-0.279-0.046-0.528,0.149-0.566,0.423C41.459,79.078,41.649,79.332,41.922,79.371   z"></path><path d="M57.906,79.391c0.025,0,0.052-0.002,0.078-0.006l0.116-0.018c0.273-0.039,0.462-0.293,0.423-0.566   c-0.039-0.273-0.287-0.469-0.566-0.423l-0.127,0.019c-0.273,0.043-0.459,0.299-0.417,0.571   C57.451,79.215,57.664,79.391,57.906,79.391z"></path><path d="M40.426,79.121l0.02,0.003c0.032,0.006,0.063,0.009,0.094,0.009c0.233,0,0.436-0.168,0.481-0.407   c0.052-0.271-0.135-0.535-0.406-0.587l-0.106-0.02c-0.272-0.049-0.484,0.139-0.534,0.411   C39.926,78.801,40.154,79.071,40.426,79.121z"></path><path d="M59.506,78.115l-0.12,0.023c-0.271,0.052-0.449,0.314-0.396,0.585c0.046,0.239,0.255,0.405,0.49,0.405   c0.031,0,0.063-0.003,0.095-0.009l0.122-0.023c0.271-0.053,0.448-0.315,0.395-0.586C60.04,78.239,59.776,78.06,59.506,78.115z"></path><path d="M38.825,78.769l0.031,0.008c0.042,0.011,0.083,0.016,0.125,0.016c0.223,0,0.426-0.15,0.484-0.376   c0.068-0.268-0.093-0.54-0.36-0.608c0,0-0.121-0.031-0.122-0.031c-0.265-0.066-0.494,0.105-0.562,0.373   C38.354,78.417,38.559,78.7,38.825,78.769z"></path><path d="M61.034,77.772l-0.118,0.03c-0.268,0.068-0.429,0.341-0.36,0.608c0.058,0.226,0.261,0.376,0.484,0.376   c0.041,0,0.083-0.005,0.125-0.016l0.121-0.031c0.267-0.069,0.428-0.342,0.358-0.609C61.575,77.863,61.302,77.701,61.034,77.772z"></path><path d="M37.16,78.264l0.126,0.046c0.055,0.019,0.11,0.028,0.165,0.028c0.207,0,0.4-0.129,0.472-0.335   c0.091-0.261-0.046-0.546-0.307-0.637l-0.104-0.037c-0.259-0.098-0.547,0.033-0.644,0.292   C36.771,77.878,36.901,78.167,37.16,78.264z"></path><path d="M62.51,77.319l-0.106,0.039c-0.261,0.091-0.398,0.376-0.307,0.637c0.072,0.206,0.266,0.335,0.472,0.335   c0.055,0,0.11-0.009,0.165-0.028l0.125-0.045c0.259-0.096,0.391-0.384,0.294-0.643C63.057,77.355,62.77,77.223,62.51,77.319z"></path><path d="M50.073,77.136H49.95c-0.276,0-0.475,0.224-0.475,0.5s0.248,0.5,0.524,0.5h0.074c0.276,0,0.5-0.224,0.5-0.5   S50.35,77.136,50.073,77.136z"></path><path d="M48.489,77.118l-0.123-0.003c-0.283-0.003-0.505,0.212-0.512,0.488c-0.006,0.276,0.212,0.505,0.488,0.512l0.123,0.003   c0.004,0,0.008,0,0.012,0c0.271,0,0.493-0.216,0.5-0.488C48.983,77.354,48.765,77.125,48.489,77.118z"></path><path d="M51.657,77.114l-0.123,0.003c-0.276,0.007-0.494,0.236-0.488,0.512c0.007,0.272,0.229,0.488,0.5,0.488   c0.004,0,0.008,0,0.013,0l0.122-0.003c0.276-0.007,0.495-0.236,0.488-0.512C52.162,77.327,51.927,77.108,51.657,77.114z"></path><path d="M46.906,77.061l-0.123-0.006c-0.257-0.017-0.509,0.2-0.523,0.476c-0.013,0.276,0.2,0.51,0.476,0.523l0.123,0.006   c0.008,0,0.016,0,0.024,0c0.265,0,0.486-0.208,0.499-0.476C47.395,77.308,47.182,77.074,46.906,77.061z"></path><path d="M53.24,77.054l-0.129,0.007c-0.275,0.017-0.485,0.253-0.469,0.529c0.016,0.265,0.236,0.47,0.499,0.47   c0.01,0,0.021,0,0.031-0.001l0.116-0.006c0.276-0.013,0.489-0.248,0.476-0.523S53.511,77.026,53.24,77.054z"></path><path d="M45.325,76.961l-0.122-0.009c-0.271-0.022-0.485,0.189-0.505,0.463c-0.021,0.275,0.214,0.517,0.489,0.538   c0,0,0.066,0.005,0.067,0.005c0.012,0.001,0.024,0.001,0.036,0.001c0.26,0,0.479-0.201,0.498-0.464   C45.808,77.22,45.6,76.981,45.325,76.961z"></path><path d="M54.814,76.951l-0.116,0.009c-0.275,0.02-0.482,0.259-0.462,0.535c0.019,0.263,0.238,0.464,0.498,0.464   c0.012,0,0.024,0,0.037-0.001l0.128-0.01c0.275-0.023,0.479-0.265,0.456-0.54C55.331,77.132,55.085,76.93,54.814,76.951z"></path><path d="M43.752,76.817l-0.122-0.013c-0.273-0.029-0.521,0.168-0.551,0.443c-0.03,0.274,0.168,0.521,0.443,0.551l0.123,0.013   c0.018,0.002,0.036,0.003,0.054,0.003c0.252,0,0.469-0.19,0.497-0.447C44.226,77.093,44.027,76.846,43.752,76.817z"></path><path d="M56.392,76.801l-0.127,0.014c-0.274,0.033-0.47,0.281-0.438,0.556c0.03,0.254,0.246,0.441,0.496,0.441   c0.02,0,0.04-0.001,0.06-0.003l0.117-0.013c0.275-0.03,0.473-0.276,0.443-0.551C56.913,76.969,56.662,76.769,56.392,76.801z"></path><path d="M42.187,76.621l-0.122-0.018c-0.279-0.049-0.528,0.149-0.566,0.423c-0.04,0.273,0.15,0.527,0.423,0.566l0.122,0.018   c0.024,0.004,0.048,0.005,0.072,0.005c0.245,0,0.458-0.179,0.494-0.428C42.65,76.914,42.46,76.66,42.187,76.621z"></path><path d="M57.957,76.6l-0.127,0.019c-0.273,0.043-0.459,0.299-0.417,0.571c0.039,0.247,0.251,0.423,0.494,0.423   c0.025,0,0.052-0.002,0.078-0.006l0.116-0.018c0.273-0.039,0.462-0.293,0.423-0.566C58.484,76.75,58.236,76.551,57.957,76.6z"></path><path d="M40.616,76.36l-0.106-0.02c-0.273-0.048-0.484,0.14-0.534,0.411c-0.05,0.272,0.178,0.542,0.45,0.591l0.02,0.003   c0.032,0.006,0.063,0.009,0.094,0.009c0.233,0,0.436-0.168,0.481-0.407C41.074,76.676,40.887,76.412,40.616,76.36z"></path><path d="M59.506,76.336l-0.12,0.023c-0.271,0.052-0.449,0.314-0.396,0.585c0.046,0.239,0.255,0.405,0.49,0.405   c0.031,0,0.063-0.003,0.095-0.009l0.122-0.023c0.271-0.053,0.448-0.315,0.395-0.586S59.776,76.283,59.506,76.336z"></path><path d="M39.105,76.03c-0.001,0-0.121-0.031-0.122-0.031c-0.266-0.068-0.494,0.106-0.562,0.373   c-0.067,0.267,0.138,0.55,0.404,0.619l0.031,0.008c0.042,0.011,0.083,0.016,0.125,0.016c0.223,0,0.426-0.15,0.484-0.376   C39.534,76.371,39.373,76.098,39.105,76.03z"></path><path d="M61.034,75.994l-0.118,0.03c-0.268,0.068-0.429,0.341-0.36,0.608c0.058,0.226,0.261,0.376,0.484,0.376   c0.041,0,0.083-0.005,0.125-0.016l0.121-0.031c0.267-0.069,0.428-0.342,0.358-0.609C61.575,76.085,61.302,75.923,61.034,75.994z"></path><path d="M37.617,75.586l-0.104-0.037c-0.258-0.099-0.547,0.033-0.644,0.292c-0.098,0.258,0.033,0.547,0.292,0.644l0.126,0.046   c0.055,0.019,0.11,0.028,0.165,0.028c0.207,0,0.4-0.129,0.472-0.335C38.015,75.963,37.878,75.678,37.617,75.586z"></path><path d="M62.568,76.551c0.055,0,0.11-0.009,0.165-0.028l0.125-0.045c0.259-0.096,0.391-0.384,0.294-0.643   c-0.097-0.259-0.383-0.39-0.643-0.294l-0.106,0.039c-0.261,0.091-0.398,0.376-0.307,0.637   C62.168,76.422,62.362,76.551,62.568,76.551z"></path><path d="M50.073,75.356H49.95c-0.276,0-0.475,0.224-0.475,0.5s0.248,0.5,0.524,0.5h0.074c0.276,0,0.5-0.224,0.5-0.5   S50.35,75.356,50.073,75.356z"></path><path d="M48.489,75.339l-0.123-0.003c-0.283-0.011-0.505,0.212-0.512,0.488c-0.006,0.276,0.212,0.505,0.488,0.512l0.123,0.003   c0.004,0,0.008,0,0.012,0c0.271,0,0.493-0.216,0.5-0.488C48.983,75.575,48.765,75.346,48.489,75.339z"></path><path d="M51.657,75.335l-0.123,0.003c-0.276,0.007-0.494,0.236-0.488,0.512c0.007,0.272,0.229,0.488,0.5,0.488   c0.004,0,0.008,0,0.013,0l0.122-0.003c0.276-0.007,0.495-0.236,0.488-0.512C52.162,75.547,51.927,75.321,51.657,75.335z"></path><path d="M46.906,75.281l-0.123-0.006c-0.257-0.006-0.509,0.2-0.523,0.476c-0.013,0.276,0.2,0.51,0.476,0.523l0.123,0.006   c0.008,0,0.016,0,0.024,0c0.265,0,0.486-0.208,0.499-0.476C47.395,75.529,47.182,75.294,46.906,75.281z"></path><path d="M53.24,75.274l-0.129,0.007c-0.275,0.017-0.485,0.253-0.469,0.529c0.016,0.265,0.236,0.47,0.499,0.47   c0.01,0,0.021,0,0.031-0.001l0.116-0.006c0.276-0.013,0.489-0.248,0.476-0.523C53.75,75.474,53.511,75.257,53.24,75.274z"></path><path d="M45.325,75.182l-0.122-0.009c-0.271-0.022-0.485,0.189-0.505,0.463c-0.021,0.275,0.214,0.517,0.489,0.538   c0,0,0.066,0.005,0.067,0.005c0.012,0.001,0.024,0.001,0.036,0.001c0.26,0,0.479-0.201,0.498-0.464   C45.808,75.441,45.6,75.202,45.325,75.182z"></path><path d="M54.814,75.172l-0.116,0.009c-0.275,0.02-0.482,0.259-0.462,0.535c0.019,0.263,0.238,0.464,0.498,0.464   c0.012,0,0.024,0,0.037-0.001l0.128-0.01c0.275-0.023,0.479-0.265,0.456-0.54C55.331,75.353,55.085,75.151,54.814,75.172z"></path><path d="M43.752,75.038l-0.122-0.013c-0.273-0.03-0.521,0.168-0.551,0.443c-0.03,0.274,0.168,0.521,0.443,0.551l0.123,0.013   c0.018,0.002,0.036,0.003,0.054,0.003c0.252,0,0.469-0.19,0.497-0.447C44.226,75.313,44.027,75.067,43.752,75.038z"></path><path d="M56.392,75.021l-0.127,0.014c-0.274,0.033-0.47,0.281-0.438,0.556c0.03,0.254,0.246,0.441,0.496,0.441   c0.02,0,0.04-0.001,0.06-0.003l0.117-0.013c0.275-0.03,0.473-0.276,0.443-0.551S56.662,74.988,56.392,75.021z"></path><path d="M42.187,74.841l-0.122-0.018c-0.279-0.045-0.528,0.149-0.566,0.423c-0.04,0.273,0.15,0.527,0.423,0.566l0.122,0.018   c0.024,0.004,0.048,0.005,0.072,0.005c0.245,0,0.458-0.179,0.494-0.428C42.65,75.134,42.46,74.88,42.187,74.841z"></path><path d="M57.957,74.82l-0.127,0.019c-0.273,0.043-0.459,0.299-0.417,0.571c0.039,0.247,0.251,0.423,0.494,0.423   c0.025,0,0.052-0.002,0.078-0.006l0.116-0.018c0.273-0.039,0.462-0.293,0.423-0.566C58.484,74.97,58.236,74.775,57.957,74.82z"></path><path d="M40.616,74.581l-0.106-0.02c-0.273-0.051-0.484,0.139-0.534,0.411c-0.05,0.272,0.178,0.542,0.45,0.591l0.02,0.003   c0.032,0.006,0.063,0.009,0.094,0.009c0.233,0,0.436-0.168,0.481-0.407C41.074,74.897,40.887,74.633,40.616,74.581z"></path><path d="M59.506,74.557l-0.12,0.023c-0.271,0.052-0.449,0.314-0.396,0.585c0.046,0.239,0.255,0.405,0.49,0.405   c0.031,0,0.063-0.003,0.095-0.009l0.122-0.023c0.271-0.053,0.448-0.315,0.395-0.586C60.04,74.681,59.776,74.502,59.506,74.557z"></path><path d="M39.105,74.25c-0.001,0-0.121-0.031-0.122-0.031c-0.266-0.066-0.494,0.105-0.562,0.373   c-0.067,0.267,0.138,0.55,0.404,0.619l0.031,0.008c0.042,0.011,0.083,0.016,0.125,0.016c0.223,0,0.426-0.15,0.484-0.376   C39.534,74.591,39.373,74.319,39.105,74.25z"></path><path d="M61.034,74.214l-0.118,0.03c-0.268,0.068-0.429,0.341-0.36,0.608c0.058,0.226,0.261,0.376,0.484,0.376   c0.041,0,0.083-0.005,0.125-0.016l0.121-0.031c0.267-0.069,0.428-0.342,0.358-0.609C61.575,74.305,61.302,74.143,61.034,74.214z"></path><path d="M37.617,73.807l-0.104-0.037c-0.258-0.099-0.547,0.033-0.644,0.292c-0.098,0.258,0.033,0.547,0.292,0.644l0.126,0.046   c0.055,0.019,0.11,0.028,0.165,0.028c0.207,0,0.4-0.129,0.472-0.335C38.015,74.184,37.878,73.898,37.617,73.807z"></path><path d="M62.568,74.772c0.055,0,0.11-0.009,0.165-0.028l0.125-0.045c0.259-0.096,0.391-0.384,0.294-0.643   c-0.097-0.258-0.383-0.389-0.643-0.294L62.403,73.8c-0.261,0.091-0.398,0.376-0.307,0.637   C62.168,74.643,62.362,74.772,62.568,74.772z"></path><path d="M50.073,86.03H49.95c-0.276,0-0.475,0.224-0.475,0.5s0.248,0.5,0.524,0.5h0.074c0.276,0,0.5-0.224,0.5-0.5   S50.35,86.03,50.073,86.03z"></path><path d="M48.489,86.012l-0.123-0.003c-0.283,0.003-0.505,0.212-0.512,0.488c-0.006,0.276,0.212,0.505,0.488,0.512l0.123,0.003   c0.004,0,0.008,0,0.012,0c0.271,0,0.493-0.216,0.5-0.488C48.983,86.248,48.765,86.019,48.489,86.012z"></path><path d="M51.657,86.008l-0.123,0.003c-0.276,0.007-0.494,0.236-0.488,0.512c0.007,0.272,0.229,0.488,0.5,0.488   c0.004,0,0.008,0,0.012,0l0.122-0.003c0.276-0.007,0.495-0.236,0.488-0.512C52.162,86.221,51.927,86.008,51.657,86.008z"></path><path d="M46.906,85.955l-0.123-0.006c-0.257-0.016-0.509,0.2-0.523,0.476c-0.013,0.276,0.2,0.51,0.476,0.523l0.123,0.006   c0.008,0,0.016,0,0.024,0c0.265,0,0.486-0.208,0.499-0.476C47.395,86.202,47.182,85.968,46.906,85.955z"></path><path d="M53.24,85.948l-0.129,0.007c-0.275,0.017-0.485,0.253-0.469,0.529c0.016,0.265,0.236,0.47,0.499,0.47   c0.01,0,0.021,0,0.031-0.001l0.116-0.006c0.276-0.013,0.489-0.248,0.476-0.523S53.511,85.921,53.24,85.948z"></path><path d="M45.325,85.855l-0.122-0.009c-0.271-0.021-0.485,0.189-0.505,0.463c-0.021,0.275,0.214,0.517,0.489,0.538   c0,0,0.066,0.005,0.067,0.005c0.012,0.001,0.024,0.001,0.036,0.001c0.26,0,0.479-0.201,0.498-0.464   C45.808,86.114,45.6,85.875,45.325,85.855z"></path><path d="M54.814,85.845l-0.116,0.009c-0.275,0.02-0.482,0.259-0.462,0.535c0.019,0.263,0.238,0.464,0.498,0.464   c0.012,0,0.024,0,0.037-0.001l0.128-0.01c0.275-0.023,0.479-0.265,0.456-0.54C55.331,86.026,55.085,85.823,54.814,85.845z"></path><path d="M43.752,85.711l-0.122-0.013c-0.273-0.034-0.521,0.168-0.551,0.443c-0.03,0.274,0.168,0.521,0.443,0.551l0.123,0.013   c0.018,0.002,0.036,0.003,0.054,0.003c0.252,0,0.469-0.19,0.497-0.447C44.226,85.987,44.027,85.74,43.752,85.711z"></path><path d="M56.392,85.695l-0.127,0.014c-0.274,0.033-0.47,0.281-0.438,0.556c0.03,0.254,0.246,0.441,0.496,0.441   c0.02,0,0.04-0.001,0.06-0.003l0.117-0.013c0.275-0.03,0.473-0.276,0.443-0.551C56.913,85.863,56.662,85.665,56.392,85.695z"></path><path d="M42.187,85.515l-0.122-0.018c-0.279-0.048-0.528,0.149-0.566,0.423c-0.04,0.273,0.15,0.527,0.423,0.566l0.122,0.018   c0.024,0.004,0.048,0.005,0.072,0.005c0.245,0,0.458-0.179,0.494-0.428C42.65,85.808,42.46,85.554,42.187,85.515z"></path><path d="M57.957,85.494l-0.127,0.019c-0.273,0.043-0.459,0.299-0.417,0.571c0.039,0.247,0.251,0.423,0.494,0.423   c0.025,0,0.052-0.002,0.078-0.006l0.116-0.018c0.273-0.039,0.462-0.293,0.423-0.566C58.484,85.644,58.236,85.447,57.957,85.494z"></path><path d="M40.616,85.254l-0.106-0.02c-0.273-0.05-0.484,0.139-0.534,0.411c-0.05,0.272,0.178,0.542,0.45,0.591l0.02,0.003   c0.032,0.006,0.063,0.009,0.094,0.009c0.233,0,0.436-0.168,0.481-0.407C41.074,85.57,40.887,85.306,40.616,85.254z"></path><path d="M59.506,85.23l-0.12,0.023c-0.271,0.052-0.449,0.314-0.396,0.585c0.046,0.239,0.255,0.405,0.49,0.405   c0.031,0,0.063-0.003,0.095-0.009l0.122-0.023c0.271-0.053,0.448-0.315,0.395-0.586C60.04,85.354,59.776,85.176,59.506,85.23z"></path><path d="M39.105,84.924c-0.001,0-0.121-0.031-0.122-0.031c-0.266-0.066-0.494,0.105-0.562,0.373   c-0.067,0.267,0.138,0.55,0.404,0.619l0.031,0.008c0.042,0.011,0.083,0.016,0.125,0.016c0.223,0,0.426-0.15,0.484-0.376   C39.534,85.265,39.373,84.992,39.105,84.924z"></path><path d="M61.034,84.888l-0.118,0.03c-0.268,0.068-0.429,0.341-0.36,0.608c0.058,0.226,0.261,0.376,0.484,0.376   c0.041,0,0.083-0.005,0.125-0.016l0.121-0.031c0.267-0.069,0.428-0.342,0.358-0.609C61.575,84.979,61.302,84.817,61.034,84.888z"></path><path d="M37.617,84.48l-0.104-0.037c-0.258-0.098-0.547,0.033-0.644,0.292c-0.098,0.258,0.033,0.547,0.292,0.644l0.126,0.046   c0.055,0.019,0.11,0.028,0.165,0.028c0.207,0,0.4-0.129,0.472-0.335C38.015,84.857,37.878,84.572,37.617,84.48z"></path><path d="M62.51,84.435l-0.106,0.039c-0.261,0.091-0.398,0.376-0.307,0.637c0.072,0.206,0.266,0.335,0.472,0.335   c0.055,0,0.11-0.009,0.165-0.028l0.125-0.045c0.259-0.096,0.391-0.384,0.294-0.643C63.056,84.471,62.77,84.34,62.51,84.435z"></path><ellipse cx="41.998" cy="8.852" rx="2.298" ry="0.535"></ellipse><ellipse cx="58.274" cy="8.852" rx="2.298" ry="0.535"></ellipse></g></svg>